<?xml version="1.0" encoding="utf-8"?>
<!-- Generator: Adobe Illustrator 23.0.2, SVG Export Plug-In . SVG Version: 6.00 Build 0)  -->
<svg version="1.1" id="Capa_1" xmlns="http://www.w3.org/2000/svg" xmlns:xlink="http://www.w3.org/1999/xlink" x="0px" y="0px"
	 viewBox="0 0 61 55" style="enable-background:new 0 0 61 55;" xml:space="preserve">
<style type="text/css">
	.st0{fill:#EDEDEE;enable-background:new    ;}
	.st1{fill:#37B4C8;}
</style>
<path class="st0" d="M34.9,49.9c5.6-0.3,26.8-6.7,19.7-19.3c-8.4-8.8-12-5.4-16.1-14.6c-4-9.3-12.7-16.4-23.2-12.3
	c-10.5,4-14.2,15.5-8.2,32C13.1,52.1,29.4,50.1,34.9,49.9z"/>
<g>
	<polygon class="st1" points="47.8,15.8 45.4,15.8 33.8,27.2 33.8,15.8 32.1,15.8 32.1,42.1 33.8,42.1 33.8,30.7 45.3,42 45.4,42.1 
		47.8,42.1 34.4,28.9 	"/>
	<path class="st1" d="M10.4,18.6c1.6-1,3.4-1.4,5.4-1.4c2.6,0,4.9,0.6,6.6,1.9s3,2.9,3.7,4.9l0.1,0.3H28l-0.2-0.7
		c-0.9-2.5-2.4-4.5-4.4-5.9s-4.6-2.1-7.6-2.1c-2.3,0-4.5,0.6-6.3,1.7C7.6,18.4,6.1,20,5.1,22s-1.6,4.3-1.6,6.9s0.5,4.9,1.6,6.9
		c1,2,2.5,3.6,4.4,4.8c1.9,1.1,4,1.7,6.3,1.7c3,0,5.6-0.7,7.6-2.1c2-1.4,3.5-3.4,4.4-5.9l0.2-0.7h-1.8V34c-0.7,2-2,3.7-3.7,4.9
		c-1.8,1.2-4,1.8-6.6,1.8c-1.9,0-3.7-0.5-5.4-1.4c-1.6-1-2.9-2.3-3.8-4.1S5.3,31.3,5.3,29c0-2.4,0.5-4.5,1.4-6.3
		C7.6,20.9,8.9,19.5,10.4,18.6z"/>
</g>
</svg>
