<?xml version="1.0" encoding="utf-8"?>
<!-- Generator: Adobe Illustrator 23.0.2, SVG Export Plug-In . SVG Version: 6.00 Build 0)  -->
<svg version="1.1" id="Capa_1" xmlns="http://www.w3.org/2000/svg" xmlns:xlink="http://www.w3.org/1999/xlink" x="0px" y="0px"
	 viewBox="0 0 120 120" style="enable-background:new 0 0 120 120;" xml:space="preserve">
<style type="text/css">
	.st0{fill:#EDEDEE;}
	.st1{fill:none;stroke:#32B5C9;stroke-width:3;stroke-linecap:round;stroke-linejoin:round;stroke-miterlimit:10;}
</style>
<path class="st0" d="M62.5,22.9c31.1-1.5,38.3,42.6,38.3,56.3s-12.4,28-29,28S48.5,87.9,34.9,79S11.2,67.6,10.3,54.4
	C9.3,41.1,40.7,24,62.5,22.9z"/>
<line class="st1" x1="82.5" y1="19.1" x2="104.6" y2="19.1"/>
<line class="st1" x1="104.6" y1="19.1" x2="104.6" y2="41.1"/>
<line class="st1" x1="104.6" y1="19.1" x2="57" y2="66.6"/>
<path class="st1" d="M87.5,56.4v32.3c0,5.6-4.6,10.1-10.1,10.1H34.6c-5.6,0-10.1-4.6-10.1-10.1V45.9c0-5.6,4.6-10.1,10.1-10.1H66"/>
</svg>
