<?xml version="1.0" encoding="utf-8"?>
<!-- Generator: Adobe Illustrator 23.0.2, SVG Export Plug-In . SVG Version: 6.00 Build 0)  -->
<svg version="1.1" id="Layer_1" xmlns="http://www.w3.org/2000/svg" xmlns:xlink="http://www.w3.org/1999/xlink" x="0px" y="0px"
	 viewBox="0 0 613.3 116.5" style="enable-background:new 0 0 613.3 116.5;" xml:space="preserve">
<style type="text/css">
	.st0{fill:#FFFFFF;}
	.st1{fill:#37B4C8;}
</style>
<g>
	<g>
		<path class="st0" d="M20.8,112.3c-6.4-2.7-11.4-6.6-15.1-11.7C2,95.5,0.1,89.5,0,82.5h24.4c0.3,4.7,2,8.4,5,11.1
			c3,2.7,7.1,4.1,12.3,4.1c5.3,0,9.5-1.3,12.5-3.8s4.6-5.9,4.6-10c0-3.4-1-6.1-3.1-8.3s-4.6-3.9-7.7-5.1c-3.1-1.2-7.4-2.6-12.8-4.2
			c-7.4-2.2-13.4-4.3-18-6.4c-4.6-2.1-8.6-5.3-11.9-9.6s-5-10-5-17.2c0-6.7,1.7-12.6,5-17.6c3.4-5,8.1-8.8,14.2-11.5s13-4,20.8-4
			C52,0,61.6,2.8,68.9,8.6c7.3,5.7,11.4,13.7,12.1,23.9H55.9c-0.2-3.9-1.9-7.1-5-9.7c-3.1-2.5-7.2-3.8-12.3-3.8
			c-4.5,0-8,1.1-10.7,3.4c-2.7,2.3-4,5.6-4,9.9c0,3,1,5.6,3,7.6s4.5,3.6,7.5,4.9c3,1.2,7.2,2.7,12.6,4.3c7.4,2.2,13.4,4.3,18.1,6.5
			c4.7,2.2,8.7,5.4,12.1,9.8c3.4,4.3,5,10,5,17.1c0,6.1-1.6,11.7-4.7,16.9c-3.2,5.2-7.8,9.4-13.8,12.5c-6.1,3.1-13.3,4.6-21.7,4.6
			C34.2,116.4,27.1,115,20.8,112.3z"/>
		<path class="st0" d="M201.9,53.9c-2.9,5.3-7.4,9.6-13.5,12.9c-6.1,3.3-13.9,4.9-23.2,4.9h-19.1v43.6h-22.8V1.6h41.9
			c8.8,0,16.3,1.5,22.5,4.6c6.2,3,10.8,7.2,13.9,12.5c3.1,5.3,4.6,11.3,4.6,18.1C206.2,42.9,204.8,48.6,201.9,53.9z M178.2,48.9
			c3-2.9,4.6-6.9,4.6-12.1c0-11.1-6.2-16.6-18.6-16.6h-18.1v33.1h18.1C170.5,53.3,175.2,51.8,178.2,48.9z"/>
		<path class="st0" d="M431.2,115.3L406.1,71h-10.7v44.3h-22.8V1.6h42.7c8.8,0,16.3,1.5,22.5,4.6s10.8,7.3,13.9,12.5
			c3.1,5.3,4.6,11.2,4.6,17.7c0,7.5-2.2,14.2-6.5,20.3c-4.3,6-10.8,10.2-19.4,12.5l27.2,46.1H431.2z M395.3,53.9h19.1
			c6.2,0,10.8-1.5,13.8-4.5s4.6-7.1,4.6-12.5c0-5.2-1.5-9.3-4.6-12.1c-3-2.9-7.7-4.3-13.8-4.3h-19.1L395.3,53.9L395.3,53.9z"/>
		<path class="st0" d="M518.1,20v28.5h38.3v18.1h-38.3v30.1h43.2v18.6h-66V1.5h66v18.6L518.1,20L518.1,20z"/>
		<polygon class="st1" points="337.2,12.7 317.9,0.2 284.9,51.6 251.8,0.2 232.5,12.7 273.4,76.1 273.4,115.3 296.3,115.3 
			296.3,76.1 		"/>
	</g>
	<g>
		<path class="st0" d="M594.9,1.7v2h-4v12.9h-2.4V3.7h-4v-2H594.9z"/>
		<path class="st0" d="M613.3,1.7v14.9h-2.5V6.4l-4.5,10.2h-1.7L600,6.4v10.2h-2.4V1.7h2.6l5.2,11.7l5.2-11.7
			C610.6,1.7,613.3,1.7,613.3,1.7z"/>
	</g>
</g>
</svg>
