<svg fill="none" height="24" viewBox="0 0 24 24" width="24" xmlns="http://www.w3.org/2000/svg"><path d="m9 10c-.26522 0-.51957.1054-.70711.2929-.18753.1875-.29289.4419-.29289.7071v2c0 .2652.10536.5196.29289.7071.18754.1875.44189.2929.70711.2929s.51957-.1054.70711-.2929c.18753-.1875.29289-.4419.29289-.7071v-2c0-.2652-.10536-.5196-.29289-.7071-.18754-.1875-.44189-.2929-.70711-.2929zm12 1c.2652 0 .5196-.1054.7071-.2929s.2929-.4419.2929-.7071v-4c0-.26522-.1054-.51957-.2929-.70711-.1875-.18753-.4419-.29289-.7071-.29289h-18c-.26522 0-.51957.10536-.70711.29289-.18753.18754-.29289.44189-.29289.70711v4c0 .2652.10536.5196.29289.7071.18754.1875.44189.2929.70711.2929s.51957.1054.70711.2929c.18753.1875.29289.4419.29289.7071s-.10536.5196-.29289.7071c-.18754.1875-.44189.2929-.70711.2929s-.51957.1054-.70711.2929c-.18753.1875-.29289.4419-.29289.7071v4c0 .2652.10536.5196.29289.7071.18754.1875.44189.2929.70711.2929h18c.2652 0 .5196-.1054.7071-.2929s.2929-.4419.2929-.7071v-4c0-.2652-.1054-.5196-.2929-.7071s-.4419-.2929-.7071-.2929-.5196-.1054-.7071-.2929-.2929-.4419-.2929-.7071.1054-.5196.2929-.7071.4419-.2929.7071-.2929zm-1-1.82c-.5792.2102-1.0795.59363-1.4332 1.0982-.3536.5045-.5433 1.1057-.5433 1.7218s.1897 1.2173.5433 1.7218c.3537.5046.854.888 1.4332 1.0982v2.18h-10c0-.2652-.10536-.5196-.29289-.7071-.18754-.1875-.44189-.2929-.70711-.2929s-.51957.1054-.70711.2929c-.18753.1875-.29289.4419-.29289.7071h-4v-2.18c.57915-.2102 1.07954-.5936 1.43316-1.0982.35362-.5045.54332-1.1057.54332-1.7218s-.1897-1.2173-.54332-1.7218c-.35362-.50457-.85401-.888-1.43316-1.0982v-2.18h4c0 .26522.10536.51957.29289.70711.18754.18753.44189.29289.70711.29289s.51957-.10536.70711-.29289c.18753-.18754.29289-.44189.29289-.70711h10z" fill="#37b4c8"/></svg>