<?xml version="1.0" encoding="utf-8"?>
<!-- Generator: Adobe Illustrator 23.0.2, SVG Export Plug-In . SVG Version: 6.00 Build 0)  -->
<svg version="1.1" id="Capa_1" xmlns="http://www.w3.org/2000/svg" xmlns:xlink="http://www.w3.org/1999/xlink" x="0px" y="0px"
	 viewBox="0 0 156 241.7" style="enable-background:new 0 0 156 241.7;" xml:space="preserve">
	<style type="text/css">
		.st0{fill:none;stroke:#FFFFFF;stroke-width:5;}
	</style>
	<animateTransform
		xlink:href="#circle-1"
		attributeName="transform"
		attributeType="XML"
		type="rotate"
		from="0 -136 121"
		to="359 -136 121"
		values="0 -136 121; 359 -136 121"
		keyTimes="0; 1"
		dur="30s"
		repeatCount="indefinite"/>
	<animateTransform
		xlink:href="#circle-2"
		attributeName="transform"
		attributeType="XML"
		type="rotate"
		from="0 -136 121"
		to="359 -136 121"
		values="0 -136 121; 359 -136 121"
		keyTimes="0; 1"
		dur="40s"
		repeatCount="indefinite"/>
	<g id="circle-1">
		<path class="st0" d="M-209.1-145.7c-16.4-3.2-34.7-1.2-51.6,6.9c-16.9,8.1-29.9,21.2-37.6,36c16.4-2.9,32.2-7.7,47.6-15.2
			C-235.2-125.3-221.6-134.6-209.1-145.7z"/>
		<path class="st0" d="M-342.7-44.3c10.7-13.4,18.9-27.7,25.3-43.1c-16.1,4.2-31.8,14-43.4,28.7"/>
		<path class="st0" d="M-135.8-167.2c-18.7,0-36.1,6.1-49.5,16.1c16.1,4.6,32.3,7.1,49.5,7.1"/>
		<path class="st0" d="M-389.8,11.9c-12.6,10.8-22.5,26.5-26.6,44.7c-4.2,18.2-2,36.6,4.6,51.8c8.1-14.6,14.1-30,17.9-46.7
			C-390,45.1-388.8,28.6-389.8,11.9z"/>
		<path class="st0" d="M-393.8,179.5c-3.8-16.7-9.8-32-17.9-46.7c-6.7,15.2-8.8,33.6-4.6,51.8"/>
		<path class="st0" d="M-360.8-58.7c-11.7,14.6-17.8,32-18.4,48.7c13.7-9.7,25.8-20.8,36.5-34.2"/>
		<path class="st0" d="M-379.1,251.4c0.6,16.6,6.7,34.1,18.4,48.7c11.6,14.6,27.3,24.4,43.4,28.7c-6.4-15.4-14.6-29.7-25.3-43.1
			C-353.3,272.2-365.5,261-379.1,251.4z"/>
		<path class="st0" d="M-250.6,359.1c-15.5-7.4-31.2-12.3-47.7-15.2c7.7,14.8,20.7,27.9,37.6,36"/>
		<path class="st0" d="M-416.4,184.7c4.1,18.2,14,33.9,26.6,44.7c0.9-16.7-0.2-33.1-4-49.8"/>
		<path class="st0" d="M-185.3,392.3c13.4,10,30.8,16.1,49.5,16.1s36.1-6.1,49.5-16.1c-16.1-4.6-32.3-7.1-49.5-7.1
			S-169.3,387.7-185.3,392.3z"/>
		<path class="st0" d="M-21,359.1c-15.4,7.5-29,16.8-41.5,27.8c16.4,3.2,34.7,1.2,51.6-6.9"/>
		<path class="st0" d="M-260.8,379.9c16.8,8.1,35.2,10.2,51.6,6.9c-12.5-11.1-26.1-20.4-41.5-27.8"/>
		<path class="st0" d="M45.7,328.7c16.1-4.2,31.8-14,43.4-28.7c11.7-14.6,17.8-32,18.4-48.7C93.8,261,81.7,272.1,71,285.5
			S52.1,313.3,45.7,328.7z"/>
		<path class="st0" d="M122.1,179.5c-3.8,16.7-5,33.1-4,49.8c12.6-10.8,22.5-26.5,26.6-44.7"/>
		<path class="st0" d="M-11,380c16.9-8.1,29.9-21.2,37.6-36c-16.4,2.9-32.2,7.7-47.6,15.2"/>
		<path class="st0" d="M140,108.4c6.7-15.2,8.8-33.6,4.6-51.8c-4.1-18.2-14-33.9-26.6-44.7c-0.9,16.7,0.2,33.1,4,49.8
			C125.9,78.5,131.9,93.8,140,108.4z"/>
		<path class="st0" d="M71-44.3c10.7,13.4,22.8,24.5,36.5,34.2c-0.6-16.6-6.7-34.1-18.4-48.7"/>
		<path class="st0" d="M144.7,184.7c4.2-18.2,2-36.6-4.6-51.8c-8.1,14.6-14.1,30-17.9,46.7"/>
		<path class="st0" d="M26.6-102.7c-7.7-14.8-20.7-27.9-37.6-36c-16.8-8.1-35.2-10.2-51.6-6.9c12.5,11.1,26.1,20.4,41.5,27.8
			C-5.6-110.4,10.2-105.6,26.6-102.7z"/>
		<path class="st0" d="M-135.9-144c17.2,0,33.4-2.5,49.5-7.1c-13.4-10-30.8-16.1-49.5-16.1"/>
		<path class="st0" d="M89.1-58.8C77.5-73.4,61.8-83.2,45.7-87.5C52.1-72.1,60.3-57.8,71-44.4"/>
	</g>
	<g id="circle-2">
		<path class="st0" d="M-295.7-23.6c-32.2,11.6-49.9,44.8-44.7,77.8C-318.1,34.2-301.8,5.6-295.7-23.6z"/>
		<path class="st0" d="M-339.4,120.6c0.4-14.7-2.8-31.1-6.9-44.9c-10.7,12.9-16.4,28.3-16.4,45"/>
		<path class="st0" d="M-249.2-76c-13.9,9.1-24.9,20.5-30.7,36.7c14.9-3.4,29-8.9,42.2-16.5"/>
		<path class="st0" d="M-340.6,187c-5.6,32.7,13.6,66.7,45,77.9C-302.3,235.1-318.3,207.8-340.6,187z"/>
		<path class="st0" d="M-237.7,296.9c-12.8-7.5-27.9-13.3-42.4-16.3c5.4,14.9,16.6,28.9,30.8,36.4"/>
		<path class="st0" d="M-362.6,120.5c-0.7,15.7,6,33,16.2,44.8c4.6-14.3,7.1-29.7,7.1-44.8"/>
		<path class="st0" d="M-180.7,330.9c25.5,21.2,64.2,22.3,89.8,0.2C-120,321.7-151.5,322.2-180.7,330.9z"/>
		<path class="st0" d="M-33.9,297c-13.2,7.7-25,17.1-35.4,28.3c16.7,2.8,32.4,0,47.2-8.3"/>
		<path class="st0" d="M-249.2,317c15,8.3,29.8,11,47,8.3c-9.8-10.9-22.6-21-35.4-28.4"/>
		<path class="st0" d="M24,264.8C56.2,253.2,73.9,220,68.7,187C46.1,207.3,30.8,235.4,24,264.8z"/>
		<path class="st0" d="M67.7,120.6c-0.4,14.7,2.8,31.1,6.9,44.9c10.7-12.9,16.4-28.3,16.4-45"/>
		<path class="st0" d="M-22.3,317.1c13.9-9.1,24.9-20.5,30.7-36.7c-14.9,3.4-29,8.9-42.2,16.5"/>
		<path class="st0" d="M69,54.3c5.6-32.7-13.6-66.7-45-77.9C30.7,6.4,46.8,33.2,69,54.3z"/>
		<path class="st0" d="M-34-55.7c12.8,7.5,27.9,13.3,42.4,16.3C3-54.3-8.2-68.3-22.4-75.8"/>
		<path class="st0" d="M90.9,120.6c0.7-15.7-6-33-16.2-44.8c-4.6,14.3-7.1,29.7-7.1,44.8"/>
		<path class="st0" d="M-90.9-89.7c-25.5-21.2-64.2-22.3-89.8-0.2C-151-80.3-120.7-81.7-90.9-89.7z"/>
		<path class="st0" d="M-237.7-55.9c13.2-7.7,25-17.1,35.4-28.3c-16.7-2.8-32.4,0-47.2,8.3"/>
		<path class="st0" d="M-22.5-75.7c-15-8.3-29.8-11-47-8.3c9.8,10.9,22.6,21,35.4,28.4"/>
	</g>
</svg>
