<?xml version="1.0" encoding="utf-8"?>
<!-- Generator: Adobe Illustrator 23.0.2, SVG Export Plug-In . SVG Version: 6.00 Build 0)  -->
<svg version="1.1" id="Capa_1" xmlns="http://www.w3.org/2000/svg" xmlns:xlink="http://www.w3.org/1999/xlink" x="0px" y="0px"
	 viewBox="0 0 476.2 476.2" style="enable-background:new 0 0 476.2 476.2;" xml:space="preserve">
<style type="text/css">
	.st0{fill:none;stroke:#FFFFFF;stroke-width:5;}
</style>
<g id="circle-2">
	<path class="st0" d="M75.8,93.7c-32.2,11.6-49.9,44.8-44.7,77.8C53.4,151.5,69.7,122.9,75.8,93.7z"/>
	<path class="st0" d="M32.1,237.9c0.4-14.7-2.8-31.1-6.9-44.9c-10.7,12.9-16.4,28.3-16.4,45"/>
	<path class="st0" d="M122.3,41.3C108.4,50.4,97.4,61.8,91.6,78c14.9-3.4,29-8.9,42.2-16.5"/>
	<path class="st0" d="M30.9,304.3c-5.6,32.7,13.6,66.7,45,77.9C69.2,352.4,53.2,325.1,30.9,304.3z"/>
	<path class="st0" d="M133.8,414.2c-12.8-7.5-27.9-13.3-42.4-16.3c5.4,14.9,16.6,28.9,30.8,36.4"/>
	<path class="st0" d="M8.9,237.8c-0.7,15.7,6,33,16.2,44.8c4.6-14.3,7.1-29.7,7.1-44.8"/>
	<path class="st0" d="M190.8,448.2c25.5,21.2,64.2,22.3,89.8,0.2C251.5,439,220,439.5,190.8,448.2z"/>
	<path class="st0" d="M337.6,414.3c-13.2,7.7-25,17.1-35.4,28.3c16.7,2.8,32.4,0,47.2-8.3"/>
	<path class="st0" d="M122.3,434.3c15,8.3,29.8,11,47,8.3c-9.8-10.9-22.6-21-35.4-28.4"/>
	<path class="st0" d="M395.5,382.1c32.2-11.6,49.9-44.8,44.7-77.8C417.6,324.6,402.3,352.7,395.5,382.1z"/>
	<path class="st0" d="M439.2,237.9c-0.4,14.7,2.8,31.1,6.9,44.9c10.7-12.9,16.4-28.3,16.4-45"/>
	<path class="st0" d="M349.2,434.4c13.9-9.1,24.9-20.5,30.7-36.7c-14.9,3.4-29,8.9-42.2,16.5"/>
	<path class="st0" d="M440.5,171.6c5.6-32.7-13.6-66.7-45-77.9C402.2,123.7,418.3,150.5,440.5,171.6z"/>
	<path class="st0" d="M337.5,61.6c12.8,7.5,27.9,13.3,42.4,16.3C374.5,63,363.3,49,349.1,41.5"/>
	<path class="st0" d="M462.4,237.9c0.7-15.7-6-33-16.2-44.8c-4.6,14.3-7.1,29.7-7.1,44.8"/>
	<path class="st0" d="M280.6,27.6c-25.5-21.2-64.2-22.3-89.8-0.2C220.5,37,250.8,35.6,280.6,27.6z"/>
	<path class="st0" d="M133.8,61.4c13.2-7.7,25-17.1,35.4-28.3c-16.7-2.8-32.4,0-47.2,8.3"/>
	<path class="st0" d="M349,41.6c-15-8.3-29.8-11-47-8.3c9.8,10.9,22.6,21,35.4,28.4"/>
</g>
</svg>
