<?xml version="1.0" encoding="utf-8"?>
<!-- Generator: Adobe Illustrator 23.0.2, SVG Export Plug-In . SVG Version: 6.00 Build 0)  -->
<svg version="1.1" id="Capa_1" xmlns="http://www.w3.org/2000/svg" xmlns:xlink="http://www.w3.org/1999/xlink" x="0px" y="0px"
	 viewBox="0 0 41 40" style="enable-background:new 0 0 41 40;" xml:space="preserve">
<style type="text/css">
	.st0{fill:#F5A631;}
	.st1{fill:#37B4C8;}
</style>
<g>
	<path class="st0" d="M26.1,33.4c-1.9,0-3.3,1.5-3.3,3.3c0,1.9,1.5,3.3,3.3,3.3c1.9,0,3.3-1.5,3.3-3.3C29.4,34.9,28,33.4,26.1,33.4z
		"/>
	<path class="st1" d="M14.8,6.6c1.9,0,3.3-1.5,3.3-3.3S16.6,0,14.8,0c-1.9,0-3.3,1.5-3.3,3.3C11.5,5.1,13,6.6,14.8,6.6z"/>
	<path class="st1" d="M3.6,17.9c1.9,0,3.3-1.5,3.3-3.3s-1.5-3.3-3.3-3.3c-1.9,0-3.3,1.5-3.3,3.3C0.2,16.4,1.7,17.9,3.6,17.9z"/>
	<path class="st1" d="M14.8,28.7c0.9,0,1.7-0.3,2.3-1c0.5-0.5,0.8-1.1,1-1.8c0.2-1.4,0.5-2.5,1.1-3.7c0.2-0.3,0.4-0.7,0.6-1
		c0.3-0.5,0.6-0.8,1-1.1c1.1-1.1,2.4-1.9,4-2.3c0.5-0.2,0.9-0.2,1.4-0.2c0.6-0.1,1.2-0.2,1.7-0.5c0.2-0.2,0.4-0.3,0.6-0.5
		c1.3-1.3,1.3-3.4,0-4.7c-0.6-0.6-1.5-1-2.3-1c-0.9,0-1.7,0.3-2.3,1c-0.4,0.4-0.6,0.9-0.8,1.4c-0.1,0.3-0.2,0.7-0.2,1.1v0.2
		c0,0.3-0.1,0.7-0.2,1.1c-0.2,0.9-0.6,1.8-1.3,2.7c-0.3,0.4-0.6,0.9-1.1,1.3c-1.1,1.1-2.3,1.8-3.9,2.3c-0.4,0.2-0.9,0.2-1.3,0.3
		c-1,0.2-1.9,0.4-2.6,1.1c-1.3,1.3-1.3,3.4,0,4.7C13.1,28.4,13.9,28.7,14.8,28.7z"/>
	<path class="st1" d="M37.3,22.1c-1.9,0-3.3,1.5-3.3,3.3c0,1.9,1.5,3.3,3.3,3.3c1.9,0,3.3-1.5,3.3-3.3
		C40.7,23.6,39.2,22.1,37.3,22.1z"/>
	<path class="st1" d="M13.4,18.3c0.4-0.1,0.8-0.2,1.2-0.2c0.2-0.1,0.5-0.1,0.7-0.2c0.2-0.1,0.6-0.2,0.8-0.2c0.4-0.2,0.7-0.4,1-0.6
		c0.2-0.2,0.4-0.5,0.6-0.8v-0.1c0,0,0-0.1,0.1-0.1c0.1-0.1,0.1-0.2,0.2-0.3c0-0.1,0-0.2,0.1-0.2v-0.1c0-0.1,0.1-0.2,0.1-0.2
		c0.1-0.7,0.2-1.4,0.4-1.9s0.3-1.1,0.6-1.7c0.2-0.3,0.4-0.7,0.6-1c0.3-0.5,0.6-0.8,1-1.1c1.1-1.1,2.4-1.9,4-2.3
		C25.2,7,25.6,7,26.1,6.9c0.6-0.1,1.2-0.2,1.7-0.5c0.2-0.2,0.4-0.3,0.6-0.5c1.3-1.3,1.3-3.4,0-4.7c-0.6-0.6-1.5-1-2.3-1
		s-1.7,0.3-2.3,1c-0.4,0.4-0.6,0.9-0.8,1.4c-0.1,0.3-0.2,0.7-0.2,1.1v0.2c0,0.3-0.1,0.7-0.2,1.1c-0.2,0.9-0.6,1.8-1.3,2.7
		c-0.3,0.5-0.6,0.9-1.1,1.3c-1.1,1.1-2.3,1.8-3.9,2.3c0,0,0,0-0.1,0c-0.4,0.2-0.8,0.2-1.2,0.3c-0.2,0.1-0.5,0.1-0.7,0.2
		c-0.2,0.1-0.6,0.2-0.8,0.2c-0.4,0.2-0.7,0.4-1,0.6c-0.2,0.2-0.4,0.5-0.6,0.8c0,0.1-0.1,0.1-0.1,0.2c-0.1,0.1-0.1,0.2-0.2,0.3
		c0,0.1-0.1,0.2-0.1,0.2v0.1c0,0.1-0.1,0.2-0.1,0.2c-0.1,0.7-0.2,1.4-0.4,1.9c-0.2,0.6-0.4,1.1-0.6,1.7c-0.2,0.3-0.4,0.7-0.6,1
		c-0.3,0.5-0.6,0.8-1,1.1c-1.1,1.1-2.4,1.9-4,2.3c-0.5,0.2-0.9,0.2-1.4,0.2c-0.6,0.1-1.2,0.2-1.7,0.5c-0.2,0.2-0.4,0.3-0.6,0.5
		c-1.3,1.3-1.3,3.4,0,4.7c0.6,0.6,1.5,1,2.3,1s1.7-0.3,2.3-1C6.3,28,6.6,27.5,6.7,27c0.1-0.3,0.2-0.7,0.2-1.1v-0.2
		c0-0.3,0.1-0.7,0.2-1.1c0.2-0.9,0.6-1.8,1.3-2.7c0.3-0.4,0.6-0.9,1.1-1.3C10.5,19.5,11.8,18.7,13.4,18.3z"/>
	<path class="st1" d="M37.2,17.6c1-0.2,1.9-0.4,2.6-1.1c1.3-1.3,1.3-3.4,0-4.7c-0.6-0.6-1.5-1-2.3-1c-0.9,0-1.7,0.3-2.3,1
		c-0.5,0.5-0.8,1.1-0.9,1.8c-0.2,1.4-0.5,2.6-1.1,3.7c-0.2,0.3-0.4,0.7-0.6,1c-0.3,0.5-0.6,0.8-1,1.1c-1.1,1.1-2.3,1.8-3.7,2.3
		c-0.1,0-0.2,0.1-0.2,0.1c-0.5,0.2-0.9,0.2-1.4,0.2c-0.2,0-0.2,0-0.4,0.1c-0.2,0-0.2,0-0.4,0.1c-0.4,0.1-0.7,0.2-1,0.3
		c-0.2,0.2-0.4,0.3-0.6,0.5c-0.1,0.1-0.2,0.2-0.2,0.2l-0.1,0.2c-0.2,0.3-0.4,0.6-0.5,1c0,0,0,0.1-0.1,0.1c0,0.1,0,0.2-0.1,0.2
		c0,0.1,0,0.1,0,0.1c-0.1,0.2-0.1,0.6-0.1,0.8v0.1c0,0.3-0.1,0.7-0.2,1.1c0,0.1-0.1,0.2-0.1,0.2c-0.2,0.8-0.6,1.6-1.2,2.4
		c-0.3,0.5-0.6,0.9-1.1,1.3c-1.1,1.1-2.3,1.9-3.9,2.3c-0.4,0.1-0.9,0.2-1.3,0.3c-1,0.2-1.9,0.4-2.6,1.1c-1.3,1.3-1.3,3.4,0,4.7
		c0.6,0.6,1.5,1,2.3,1s1.7-0.3,2.3-1c0.5-0.5,0.8-1.1,1-1.8c0.2-1.4,0.5-2.5,1.1-3.7c0.2-0.3,0.4-0.7,0.6-1c0.3-0.5,0.6-0.8,1-1.1
		c1.1-1.1,2.3-1.8,3.7-2.3c0.1,0,0.2-0.1,0.2-0.1c0.5-0.2,0.9-0.2,1.4-0.2c0.2,0,0.2,0,0.4-0.1c0.2,0,0.2,0,0.4-0.1
		c0.4-0.1,0.6-0.2,1-0.3c0.2-0.2,0.4-0.3,0.6-0.5c0.3-0.3,0.6-0.8,0.8-1.3c0,0,0-0.1,0.1-0.1c0,0,0,0,0-0.1c0-0.1,0-0.2,0.1-0.2
		c0-0.1,0-0.1,0-0.1c0.1-0.2,0.1-0.6,0.1-0.8v-0.1c0-0.3,0.1-0.7,0.2-1.1c0-0.1,0.1-0.2,0.1-0.2c0.2-0.8,0.6-1.6,1.2-2.4
		c0.3-0.4,0.6-0.9,1.1-1.3c1.1-1.1,2.3-1.8,3.9-2.3C36.4,17.7,36.8,17.7,37.2,17.6z"/>
</g>
</svg>
