<svg width="184" height="40" viewBox="0 0 184 40" fill="none" xmlns="http://www.w3.org/2000/svg">
<path d="M25.833 33.3603C23.9707 33.3603 22.5132 34.8988 22.5132 36.6802C22.5132 38.5425 23.9707 40 25.833 40C27.6954 40 29.1529 38.5425 29.1529 36.6802C29.1529 34.8988 27.6954 33.3603 25.833 33.3603Z" fill="#F5A631"/>
<path d="M14.578 6.63968C16.4404 6.63968 17.8978 5.18219 17.8978 3.31984C17.8978 1.45749 16.3594 0 14.578 0C12.7157 0 11.2582 1.53846 11.2582 3.31984C11.2582 5.10121 12.7157 6.63968 14.578 6.63968Z" fill="#37B4C8"/>
<path d="M3.3229 17.8947C5.18524 17.8947 6.64273 16.4372 6.64273 14.5749C6.64273 12.7126 5.18524 11.2551 3.3229 11.2551C1.46055 11.2551 0.00305699 12.7126 0.00305699 14.5749C-0.0779147 16.4372 1.46055 17.8947 3.3229 17.8947Z" fill="#37B4C8"/>
<path d="M14.5779 28.7449C15.4686 28.7449 16.2783 28.4211 16.9261 27.7733C17.4119 27.2875 17.7358 26.6397 17.8978 25.9919C18.1407 24.6154 18.3836 23.4818 18.9504 22.2672C19.1123 21.9433 19.3552 21.5385 19.5982 21.2955C19.922 20.8097 20.2459 20.4858 20.5698 20.1619C21.6225 19.1093 22.999 18.2996 24.5374 17.8138C25.0233 17.6518 25.4281 17.5709 25.914 17.5709C26.5617 17.4899 27.1285 17.4089 27.6144 17.085C27.8573 16.9231 28.0192 16.7611 28.2621 16.5992C29.5577 15.3036 29.5577 13.1984 28.2621 11.9028C27.6144 11.2551 26.8046 10.9312 25.914 10.9312C25.0233 10.9312 24.2135 11.2551 23.5658 11.9028C23.1609 12.3077 22.918 12.7935 22.7561 13.2794C22.6751 13.6032 22.5941 14.0081 22.5941 14.413V14.5749C22.5941 14.8988 22.5131 15.3036 22.4322 15.6275C22.1893 16.5182 21.7844 17.4089 21.1366 18.2996C20.8127 18.7045 20.4889 19.1903 20.084 19.5951C19.0314 20.6478 17.7358 21.3765 16.1974 21.8623C15.7925 22.0243 15.3067 22.1053 14.9018 22.1862C13.9301 22.3482 13.0395 22.5911 12.3107 23.2389C11.0152 24.5344 11.0152 26.6397 12.3107 27.9352C12.8775 28.4211 13.6872 28.7449 14.5779 28.7449Z" fill="#37B4C8"/>
<path d="M37.0881 22.1053C35.2257 22.1053 33.7682 23.5628 33.7682 25.4251C33.7682 27.2874 35.2257 28.7449 37.0881 28.7449C38.9504 28.7449 40.4079 27.2065 40.4079 25.4251C40.4889 23.5628 38.9504 22.1053 37.0881 22.1053Z" fill="#37B4C8"/>
<path d="M13.1203 18.2996C13.5251 18.2186 13.93 18.0567 14.3349 18.0567C14.5778 17.9757 14.8207 17.9757 15.0636 17.8947C15.3065 17.8138 15.6304 17.7328 15.8733 17.6518C16.2782 17.4899 16.6021 17.247 16.845 17.004C17.0879 16.7611 17.2498 16.5182 17.4118 16.1943V16.1134C17.4118 16.1134 17.4118 16.0324 17.4927 16.0324C17.5737 15.9514 17.5737 15.7895 17.6547 15.7085C17.6547 15.6275 17.6547 15.5466 17.7357 15.5466V15.4656C17.7357 15.3846 17.8166 15.3036 17.8166 15.2227C17.8976 14.4939 18.0596 13.8462 18.2215 13.2794C18.3834 12.7126 18.5454 12.1457 18.8693 11.5789C19.0312 11.2551 19.2741 10.8502 19.517 10.6073C19.8409 10.1215 20.1648 9.79757 20.4887 9.47368C21.5413 8.42105 22.9178 7.61134 24.4563 7.1255C24.9421 6.96356 25.347 6.96356 25.8328 6.88259C26.4806 6.80162 27.0474 6.72065 27.5332 6.39676C27.7761 6.23482 27.9381 6.07287 28.181 5.91093C29.4766 4.61538 29.4766 2.51012 28.181 1.21457C27.5332 0.566801 26.7235 0.242914 25.8328 0.242914C24.9421 0.242914 24.1324 0.566801 23.4847 1.21457C23.0798 1.61943 22.8369 2.10526 22.6749 2.59109C22.594 2.91498 22.513 3.31984 22.513 3.7247V3.88664C22.513 4.21053 22.432 4.61538 22.351 4.93927C22.1081 5.82996 21.7033 6.72065 21.0555 7.61134C20.7316 8.09717 20.4077 8.50202 20.0029 8.90688C18.9502 9.95951 17.6547 10.6883 16.1162 11.1741C16.1162 11.1741 16.1162 11.1741 16.0353 11.1741C15.6304 11.336 15.2255 11.417 14.8207 11.498C14.5778 11.5789 14.3349 11.5789 14.0919 11.6599C13.849 11.7409 13.5251 11.8219 13.2822 11.9028C12.8774 12.0648 12.5535 12.3077 12.3106 12.5506C12.0676 12.7935 11.9057 13.0364 11.7438 13.3603C11.7438 13.4413 11.6628 13.4413 11.6628 13.5223C11.5818 13.6032 11.5818 13.7652 11.5008 13.8462C11.5008 13.9271 11.4199 14.0081 11.4199 14.0891V14.17C11.4199 14.251 11.3389 14.332 11.3389 14.413C11.2579 15.1417 11.096 15.7895 10.934 16.3563C10.7721 16.9231 10.5292 17.4899 10.2863 18.0567C10.1243 18.3806 9.88141 18.7854 9.6385 19.0283C9.31461 19.5142 8.99072 19.8381 8.66684 20.1619C7.6142 21.2146 6.23769 22.0243 4.69923 22.5101C4.2134 22.6721 3.80854 22.6721 3.32271 22.753C2.67493 22.834 2.10813 22.915 1.6223 23.2389C1.37939 23.4008 1.21745 23.5628 0.974531 23.7247C-0.321016 25.0202 -0.321016 27.1255 0.974531 28.4211C1.6223 29.0688 2.43202 29.3927 3.32271 29.3927C4.2134 29.3927 5.02311 29.0688 5.67089 28.4211C6.07575 28.0162 6.31866 27.5304 6.4806 27.0445C6.56158 26.7206 6.64254 26.3158 6.64254 25.9109V25.749C6.64254 25.4251 6.72352 25.0202 6.80449 24.6964C7.0474 23.8057 7.45226 22.915 8.10004 22.0243C8.42392 21.6194 8.74781 21.1336 9.15267 20.7287C10.2053 19.5142 11.5818 18.7045 13.1203 18.2996Z" fill="#37B4C8"/>
<path d="M36.9262 17.5708C37.8978 17.4089 38.7885 17.166 39.5173 16.5182C40.8128 15.2227 40.8128 13.1174 39.5173 11.8219C38.8695 11.1741 38.0598 10.8502 37.1691 10.8502C36.2784 10.8502 35.4687 11.1741 34.8209 11.8219C34.3351 12.3077 34.0112 12.9555 33.9302 13.6032C33.6873 14.9798 33.4444 16.1943 32.8776 17.3279C32.7157 17.6518 32.4727 18.0567 32.2298 18.2996C31.9059 18.7854 31.5821 19.1093 31.2582 19.4332C30.2055 20.4858 28.91 21.2146 27.5335 21.7004C27.4525 21.7004 27.3715 21.7814 27.2906 21.7814C26.8047 21.9433 26.3999 22.0243 25.914 22.0243C25.7521 22.0243 25.6711 22.0243 25.5092 22.1053C25.3472 22.1053 25.2663 22.1053 25.1043 22.1862C24.6995 22.2672 24.3756 22.3482 24.1327 22.5101C23.8897 22.6721 23.7278 22.834 23.4849 22.9959C23.4039 23.0769 23.3229 23.1579 23.3229 23.2389L23.242 23.4008C22.9991 23.7247 22.8371 24.0486 22.7561 24.3725C22.7561 24.3725 22.7561 24.4534 22.6752 24.4534C22.6752 24.5344 22.6752 24.6154 22.5942 24.6964C22.5942 24.7773 22.5942 24.7773 22.5942 24.7773C22.5132 25.0202 22.5132 25.3441 22.5132 25.587V25.668C22.5132 25.9919 22.4323 26.3968 22.3513 26.7206C22.3513 26.8016 22.2703 26.8826 22.2703 26.9636C22.0274 27.7733 21.6225 28.583 21.0557 29.3927C20.7318 29.8785 20.408 30.2834 20.0031 30.6883C18.9505 31.7409 17.6549 32.5506 16.1165 32.9555C15.7116 33.0364 15.2258 33.1984 14.8209 33.2794C13.8493 33.4413 12.9586 33.6842 12.2298 34.332C10.9343 35.6275 10.9343 37.7328 12.2298 39.0283C12.8776 39.6761 13.6873 40 14.578 40C15.4687 40 16.2784 39.6761 16.9262 39.0283C17.412 38.5425 17.7359 37.8947 17.8978 37.247C18.1408 35.8704 18.3837 34.7368 18.9505 33.5223C19.1124 33.1984 19.3553 32.7935 19.5982 32.5506C19.9221 32.0648 20.246 31.7409 20.5699 31.417C21.6225 30.3644 22.9181 29.6356 24.2946 29.1498C24.3756 29.1498 24.4565 29.0688 24.5375 29.0688C25.0233 28.9069 25.4282 28.9069 25.914 28.8259C26.076 28.8259 26.1569 28.8259 26.3189 28.7449C26.4808 28.7449 26.5618 28.7449 26.7238 28.664C27.1286 28.583 27.3715 28.502 27.6954 28.3401C27.9383 28.1781 28.1003 28.0162 28.3432 27.8542C28.6671 27.5304 28.991 27.0445 29.1529 26.5587C29.1529 26.5587 29.1529 26.4777 29.2339 26.4777C29.2339 26.4777 29.2339 26.4777 29.2339 26.3968C29.2339 26.3158 29.2339 26.2348 29.3148 26.1538C29.3148 26.0729 29.3148 26.0729 29.3148 26.0729C29.3958 25.83 29.3958 25.5061 29.3958 25.2632V25.1822C29.3958 24.8583 29.4768 24.4534 29.5578 24.1296C29.5578 24.0486 29.6387 23.9676 29.6387 23.8866C29.8816 23.0769 30.2865 22.2672 30.8533 21.4575C31.1772 21.0526 31.5011 20.5668 31.9059 20.1619C32.9586 19.1093 34.2541 18.3806 35.7926 17.8947C36.1165 17.7328 36.5213 17.6518 36.9262 17.5708Z" fill="#37B4C8"/>
<path d="M146.4 24.5344V20.081C146.4 15.9514 148.667 14.413 152.23 14.413C155.792 14.413 158.06 15.9514 158.06 20.081V24.5344C158.06 28.7449 156.359 30.5263 152.23 30.5263C148.019 30.5263 146.4 28.8259 146.4 24.5344ZM155.631 24.5344V20.081C155.631 17.247 154.416 16.6802 152.311 16.6802C150.205 16.6802 148.991 17.247 148.991 20.081V24.5344C148.991 27.3684 150.043 28.2591 152.311 28.2591C154.659 28.2591 155.631 27.3684 155.631 24.5344Z" fill="#9C9E9F"/>
<path d="M86.4 20.081C86.4 17.247 87.6146 16.6802 89.7198 16.6802C91.8251 16.6802 93.0397 17.247 93.0397 20.081V30.2024H95.5498V20.081C95.5498 15.9514 93.2826 14.413 89.7198 14.413C86.0761 14.413 83.8899 15.9514 83.8899 20.081V30.2024H86.4V20.081Z" fill="#9C9E9F"/>
<path d="M77.25 24.6154C77.25 27.4494 76.0354 28.0162 73.9301 28.0162C71.8249 28.0162 70.6103 27.4494 70.6103 24.6154V14.413H68.1002V24.5344C68.1002 28.664 70.3674 30.2024 73.9301 30.2024C77.5738 30.2024 79.7601 28.664 79.7601 24.5344V14.413H77.25V24.6154Z" fill="#9C9E9F"/>
<path d="M162.189 20.081V30.2024H164.699V20.081C164.699 17.247 165.914 16.6802 168.019 16.6802V14.413C164.456 14.413 162.189 15.9514 162.189 20.081Z" fill="#9C9E9F"/>
<path d="M120.975 14.413C117.331 14.413 115.145 15.9514 115.145 20.081V35.4656H117.736V29.8785C118.626 30.2834 119.598 30.4453 120.975 30.4453C125.104 30.4453 126.805 28.7449 126.805 24.4534V20C126.805 15.9514 124.618 14.413 120.975 14.413ZM124.294 24.5344C124.294 27.3684 123.323 28.2591 120.975 28.2591C119.031 28.2591 117.655 27.3684 117.655 25.3441V23.8866V20C117.655 17.166 118.869 16.5992 120.975 16.5992C123.08 16.5992 124.294 17.166 124.294 20V24.5344Z" fill="#9C9E9F"/>
<path d="M177.898 30.4453C181.946 30.4453 183.647 28.7449 183.647 25.749H181.218C181.218 27.3684 180.246 28.0972 177.979 28.0972C175.712 28.0972 174.74 27.4494 174.74 24.6964V20.1619C174.74 17.4089 176.035 16.8421 177.979 16.8421C179.841 16.8421 181.056 17.4089 181.299 19.5951C181.299 21.2146 180.327 21.9433 178.06 21.9433H175.874C175.793 21.9433 175.874 24.2915 175.874 24.2915H178.06C182.108 24.2915 183.728 22.5911 183.728 19.5951C183.485 16.0324 181.299 14.6559 177.979 14.6559C174.416 14.6559 172.23 16.1134 172.23 20.2429V24.7773C172.068 28.9069 173.687 30.4453 177.898 30.4453Z" fill="#9C9E9F"/>
<path d="M105.347 14.4939C105.266 14.4939 105.266 14.4939 105.347 14.4939C101.298 14.4939 99.598 16.1943 99.598 19.1903H102.027C102.027 17.5709 102.999 16.8421 105.266 16.8421C107.533 16.8421 108.505 17.4899 108.505 20.2429V24.7773C108.505 27.5304 107.209 28.0972 105.266 28.0972C103.404 28.0972 102.189 27.5304 101.946 25.3441C101.946 23.7247 102.918 22.996 105.185 22.996H107.371C107.452 22.996 107.371 20.6478 107.371 20.6478H105.185C101.136 20.6478 99.517 22.3482 99.517 25.3441C99.7599 28.9069 101.946 30.2834 105.266 30.2834C108.829 30.2834 111.015 28.8259 111.015 24.6964V20.1619C111.096 16.0324 109.477 14.4939 105.347 14.4939Z" fill="#9C9E9F"/>
<path d="M133.444 30.2834V20.8907V19.4332C133.444 17.4089 134.821 16.5182 136.764 16.5182C139.112 16.5182 140.084 17.4089 140.084 20.2429V30.2024H142.594V20.2429C142.594 15.9514 140.894 14.251 136.764 14.251C135.388 14.251 134.335 14.413 133.525 14.8178V9.23077H130.934V30.2024H133.444V30.2834Z" fill="#9C9E9F"/>
<path d="M59.2742 27.9352C57.1689 27.9352 55.9544 27.3684 55.9544 24.5344V9.31174H53.4442V24.6154C53.4442 28.664 55.6305 30.2024 59.1123 30.2834H64.4564V28.0162H59.2742V27.9352Z" fill="#9C9E9F"/>
</svg>
