<svg width="172" height="40" viewBox="0 0 172 40" fill="none" xmlns="http://www.w3.org/2000/svg">
<path d="M24.1695 31.2121C22.4271 31.2121 21.0634 32.6515 21.0634 34.3182C21.0634 36.0606 22.4271 37.4242 24.1695 37.4242C25.9119 37.4242 27.2755 36.0606 27.2755 34.3182C27.2755 32.6515 25.9119 31.2121 24.1695 31.2121Z" fill="#F5A631"/>
<path d="M13.6393 6.21212C15.3817 6.21212 16.7453 4.84848 16.7453 3.10606C16.7453 1.36364 15.3059 0 13.6393 0C11.8968 0 10.5332 1.43939 10.5332 3.10606C10.5332 4.77273 11.8968 6.21212 13.6393 6.21212Z" fill="#37B4C8"/>
<path d="M3.10892 16.7424C4.85135 16.7424 6.21498 15.3788 6.21498 13.6364C6.21498 11.8939 4.85135 10.5303 3.10892 10.5303C1.3665 10.5303 0.00286014 11.8939 0.00286014 13.6364C-0.0728974 15.3788 1.3665 16.7424 3.10892 16.7424Z" fill="#37B4C8"/>
<path d="M13.6391 26.8939C14.4725 26.8939 15.23 26.5909 15.8361 25.9848C16.2907 25.5303 16.5937 24.9242 16.7452 24.3182C16.9725 23.0303 17.1997 21.9697 17.73 20.8333C17.8816 20.5303 18.1088 20.1515 18.3361 19.9242C18.6391 19.4697 18.9422 19.1667 19.2452 18.8636C20.23 17.8788 21.5179 17.1212 22.9573 16.6667C23.4119 16.5151 23.7907 16.4394 24.2452 16.4394C24.8513 16.3636 25.3816 16.2879 25.8361 15.9848C26.0634 15.8333 26.2149 15.6818 26.4422 15.5303C27.6543 14.3182 27.6543 12.3485 26.4422 11.1364C25.8361 10.5303 25.0785 10.2273 24.2452 10.2273C23.4119 10.2273 22.6543 10.5303 22.0482 11.1364C21.6694 11.5151 21.4422 11.9697 21.2907 12.4242C21.2149 12.7273 21.1391 13.1061 21.1391 13.4848V13.6364C21.1391 13.9394 21.0634 14.3182 20.9876 14.6212C20.7603 15.4545 20.3816 16.2879 19.7755 17.1212C19.4725 17.5 19.1694 17.9545 18.7907 18.3333C17.8058 19.3182 16.5937 20 15.1543 20.4545C14.7755 20.606 14.321 20.6818 13.9422 20.7576C13.0331 20.9091 12.1997 21.1364 11.5179 21.7424C10.3058 22.9545 10.3058 24.9242 11.5179 26.1364C12.0482 26.5909 12.8058 26.8939 13.6391 26.8939Z" fill="#37B4C8"/>
<path d="M34.6999 20.6818C32.9575 20.6818 31.5938 22.0455 31.5938 23.7879C31.5938 25.5303 32.9575 26.8939 34.6999 26.8939C36.4423 26.8939 37.806 25.4545 37.806 23.7879C37.8817 22.0455 36.4423 20.6818 34.6999 20.6818Z" fill="#37B4C8"/>
<path d="M12.2755 17.1212C12.6543 17.0455 13.0331 16.8939 13.4119 16.8939C13.6391 16.8182 13.8664 16.8182 14.0937 16.7424C14.321 16.6667 14.624 16.5909 14.8513 16.5152C15.23 16.3636 15.5331 16.1364 15.7604 15.9091C15.9876 15.6818 16.1391 15.4546 16.2907 15.1515V15.0758C16.2907 15.0758 16.2907 15 16.3664 15C16.4422 14.9243 16.4422 14.7727 16.5179 14.697C16.5179 14.6212 16.5179 14.5455 16.5937 14.5455V14.4697C16.5937 14.3939 16.6694 14.3182 16.6694 14.2424C16.7452 13.5606 16.8967 12.9546 17.0482 12.4242C17.1997 11.8939 17.3513 11.3636 17.6543 10.8333C17.8058 10.5303 18.0331 10.1515 18.2604 9.92425C18.5634 9.4697 18.8664 9.16667 19.1694 8.86364C20.1543 7.87879 21.4422 7.12122 22.8816 6.66667C23.3361 6.51516 23.7149 6.51516 24.1694 6.4394C24.7755 6.36364 25.3058 6.28789 25.7604 5.98486C25.9876 5.83334 26.1391 5.68183 26.3664 5.53031C27.5785 4.31819 27.5785 2.34849 26.3664 1.13637C25.7603 0.530311 25.0028 0.22728 24.1694 0.22728C23.3361 0.22728 22.5785 0.530311 21.9725 1.13637C21.5937 1.51516 21.3664 1.9697 21.2149 2.42425C21.1391 2.72728 21.0634 3.10607 21.0634 3.48486V3.63637C21.0634 3.9394 20.9876 4.31819 20.9119 4.62122C20.6846 5.45455 20.3058 6.28789 19.6997 7.12122C19.3967 7.57576 19.0937 7.95455 18.7149 8.33334C17.73 9.31819 16.5179 10 15.0785 10.4546C15.0785 10.4546 15.0785 10.4546 15.0028 10.4546C14.624 10.6061 14.2452 10.6818 13.8664 10.7576C13.6391 10.8333 13.4119 10.8333 13.1846 10.9091C12.9573 10.9849 12.6543 11.0606 12.427 11.1364C12.0482 11.2879 11.7452 11.5152 11.5179 11.7424C11.2907 11.9697 11.1391 12.197 10.9876 12.5C10.9876 12.5758 10.9119 12.5758 10.9119 12.6515C10.8361 12.7273 10.8361 12.8788 10.7603 12.9546C10.7603 13.0303 10.6846 13.1061 10.6846 13.1818V13.2576C10.6846 13.3333 10.6088 13.4091 10.6088 13.4849C10.5331 14.1667 10.3816 14.7727 10.23 15.303C10.0785 15.8333 9.85126 16.3636 9.62399 16.8939C9.47247 17.197 9.2452 17.5758 9.01793 17.803C8.7149 18.2576 8.41186 18.5606 8.10883 18.8636C7.12399 19.8485 5.83611 20.6061 4.39671 21.0606C3.94217 21.2121 3.56338 21.2121 3.10884 21.2879C2.50277 21.3636 1.97247 21.4394 1.51793 21.7424C1.29065 21.8939 1.13914 22.0455 0.911866 22.197C-0.300255 23.4091 -0.300255 25.3788 0.911866 26.5909C1.51793 27.197 2.2755 27.5 3.10884 27.5C3.94217 27.5 4.69975 27.197 5.30581 26.5909C5.68459 26.2121 5.91187 25.7576 6.06338 25.303C6.13914 25 6.21489 24.6212 6.21489 24.2424V24.0909C6.21489 23.7879 6.29065 23.4091 6.36641 23.1061C6.59368 22.2727 6.97247 21.4394 7.57853 20.6061C7.88156 20.2273 8.18459 19.7727 8.56338 19.3939C9.54823 18.2576 10.8361 17.5 12.2755 17.1212Z" fill="#37B4C8"/>
<path d="M34.5483 16.4394C35.4574 16.2879 36.2908 16.0606 36.9726 15.4545C38.1847 14.2424 38.1847 12.2727 36.9726 11.0606C36.3665 10.4546 35.6089 10.1515 34.7756 10.1515C33.9423 10.1515 33.1847 10.4546 32.5786 11.0606C32.1241 11.5152 31.8211 12.1212 31.7453 12.7273C31.518 14.0152 31.2908 15.1515 30.7605 16.2121C30.6089 16.5152 30.3817 16.8939 30.1544 17.1212C29.8514 17.5758 29.5483 17.8788 29.2453 18.1818C28.2605 19.1667 27.0483 19.8485 25.7605 20.303C25.6847 20.303 25.6089 20.3788 25.5332 20.3788C25.0786 20.5303 24.6999 20.6061 24.2453 20.6061C24.0938 20.6061 24.018 20.6061 23.8665 20.6818C23.715 20.6818 23.6392 20.6818 23.4877 20.7576C23.1089 20.8333 22.8059 20.9091 22.5786 21.0606C22.3514 21.2121 22.1999 21.3636 21.9726 21.5152C21.8968 21.5909 21.8211 21.6667 21.8211 21.7424L21.7453 21.8939C21.518 22.197 21.3665 22.5 21.2908 22.803C21.2908 22.803 21.2908 22.8788 21.215 22.8788C21.215 22.9545 21.215 23.0303 21.1392 23.1061C21.1392 23.1818 21.1392 23.1818 21.1392 23.1818C21.0635 23.4091 21.0635 23.7121 21.0635 23.9394V24.0152C21.0635 24.3182 20.9877 24.697 20.912 25C20.912 25.0758 20.8362 25.1515 20.8362 25.2273C20.6089 25.9849 20.2302 26.7424 19.6999 27.5C19.3968 27.9546 19.0938 28.3333 18.715 28.7121C17.7302 29.697 16.518 30.4545 15.0786 30.8333C14.6999 30.9091 14.2453 31.0606 13.8665 31.1364C12.9574 31.2879 12.1241 31.5152 11.4423 32.1212C10.2302 33.3333 10.2302 35.303 11.4423 36.5152C12.0483 37.1212 12.8059 37.4242 13.6392 37.4242C14.4726 37.4242 15.2302 37.1212 15.8362 36.5152C16.2908 36.0606 16.5938 35.4545 16.7453 34.8485C16.9726 33.5606 17.1999 32.5 17.7302 31.3636C17.8817 31.0606 18.1089 30.6818 18.3362 30.4545C18.6392 30 18.9423 29.697 19.2453 29.3939C20.2302 28.4091 21.4423 27.7273 22.7302 27.2727C22.8059 27.2727 22.8817 27.197 22.9574 27.197C23.412 27.0455 23.7908 27.0455 24.2453 26.9697C24.3968 26.9697 24.4726 26.9697 24.6241 26.8939C24.7756 26.8939 24.8514 26.8939 25.0029 26.8182C25.3817 26.7424 25.6089 26.6667 25.912 26.5152C26.1392 26.3636 26.2908 26.2121 26.518 26.0606C26.8211 25.7576 27.1241 25.303 27.2756 24.8485C27.2756 24.8485 27.2756 24.7727 27.3514 24.7727C27.3514 24.7727 27.3514 24.7727 27.3514 24.697C27.3514 24.6212 27.3514 24.5455 27.4271 24.4697C27.4271 24.3939 27.4271 24.3939 27.4271 24.3939C27.5029 24.1667 27.5029 23.8636 27.5029 23.6364V23.5606C27.5029 23.2576 27.5786 22.8788 27.6544 22.5758C27.6544 22.5 27.7302 22.4242 27.7302 22.3485C27.9574 21.5909 28.3362 20.8333 28.8665 20.0758C29.1695 19.697 29.4726 19.2424 29.8514 18.8636C30.8362 17.8788 32.0483 17.197 33.4877 16.7424C33.7908 16.5909 34.1695 16.5152 34.5483 16.4394Z" fill="#37B4C8"/>
<path d="M136.97 23.3182V19.1515C136.97 15.2879 139.091 13.8485 142.424 13.8485C145.758 13.8485 147.879 15.2879 147.879 19.1515V23.3182C147.879 27.2576 146.288 28.9242 142.424 28.9242C138.485 28.9242 136.97 27.3333 136.97 23.3182ZM145.606 23.3182V19.1515C145.606 16.5 144.47 15.9697 142.5 15.9697C140.53 15.9697 139.394 16.5 139.394 19.1515V23.3182C139.394 25.9697 140.379 26.803 142.5 26.803C144.697 26.803 145.606 25.9697 145.606 23.3182Z" fill="white"/>
<path d="M80.8335 19.1515C80.8335 16.5 81.9699 15.9697 83.9396 15.9697C85.9092 15.9697 87.0456 16.5 87.0456 19.1515V28.6212H89.3941V19.1515C89.3941 15.2879 87.2729 13.8485 83.9396 13.8485C80.5305 13.8485 78.485 15.2879 78.485 19.1515V28.6212H80.8335V19.1515Z" fill="white"/>
<path d="M72.2729 23.3939C72.2729 26.0454 71.1365 26.5758 69.1668 26.5758C67.1971 26.5758 66.0608 26.0454 66.0608 23.3939V13.8485H63.7123V23.3182C63.7123 27.1818 65.8335 28.6212 69.1668 28.6212C72.5759 28.6212 74.6214 27.1818 74.6214 23.3182V13.8485H72.2729V23.3939Z" fill="white"/>
<path d="M151.743 19.1515V28.6212H154.091V19.1515C154.091 16.5 155.227 15.9697 157.197 15.9697V13.8485C153.864 13.8485 151.743 15.2879 151.743 19.1515Z" fill="white"/>
<path d="M113.182 13.8485C109.773 13.8485 107.727 15.2879 107.727 19.1515V33.5454H110.152V28.3182C110.985 28.697 111.894 28.8485 113.182 28.8485C117.046 28.8485 118.636 27.2576 118.636 23.2424V19.0758C118.636 15.2879 116.591 13.8485 113.182 13.8485ZM116.288 23.3182C116.288 25.9697 115.379 26.803 113.182 26.803C111.364 26.803 110.076 25.9697 110.076 24.0758V22.7121V19.0758C110.076 16.4242 111.212 15.8939 113.182 15.8939C115.152 15.8939 116.288 16.4242 116.288 19.0758V23.3182Z" fill="white"/>
<path d="M166.44 28.8485C170.227 28.8485 171.818 27.2576 171.818 24.4545H169.546C169.546 25.9697 168.636 26.6515 166.515 26.6515C164.394 26.6515 163.485 26.0455 163.485 23.4697V19.2273C163.485 16.6515 164.697 16.1212 166.515 16.1212C168.258 16.1212 169.394 16.6515 169.621 18.697C169.621 20.2121 168.712 20.8939 166.591 20.8939H164.546C164.47 20.8939 164.546 23.0909 164.546 23.0909H166.591C170.379 23.0909 171.894 21.5 171.894 18.697C171.667 15.3636 169.621 14.0758 166.515 14.0758C163.182 14.0758 161.136 15.4394 161.136 19.303V23.5455C160.985 27.4091 162.5 28.8485 166.44 28.8485Z" fill="white"/>
<path d="M98.5606 13.9242C98.4849 13.9242 98.4849 13.9242 98.5606 13.9242C94.7727 13.9242 93.1818 15.5151 93.1818 18.3182H95.4545C95.4545 16.803 96.3636 16.1212 98.4849 16.1212C100.606 16.1212 101.515 16.7273 101.515 19.303V23.5455C101.515 26.1212 100.303 26.6515 98.4849 26.6515C96.7424 26.6515 95.6061 26.1212 95.3788 24.0758C95.3788 22.5606 96.2879 21.8788 98.4091 21.8788H100.455C100.53 21.8788 100.455 19.6818 100.455 19.6818H98.4091C94.6212 19.6818 93.1061 21.2727 93.1061 24.0758C93.3333 27.4091 95.3788 28.697 98.4849 28.697C101.818 28.697 103.864 27.3333 103.864 23.4697V19.2273C103.939 15.3636 102.424 13.9242 98.5606 13.9242Z" fill="white"/>
<path d="M124.849 28.697V19.9091V18.5455C124.849 16.6515 126.136 15.8182 127.955 15.8182C130.152 15.8182 131.061 16.6515 131.061 19.303V28.6212H133.409V19.303C133.409 15.2879 131.818 13.697 127.955 13.697C126.667 13.697 125.682 13.8485 124.924 14.2273V9H122.5V28.6212H124.849V28.697Z" fill="white"/>
<path d="M55.4546 26.5C53.4849 26.5 52.3486 25.9697 52.3486 23.3182V9.07576H50.0001V23.3939C50.0001 27.1818 52.0455 28.6212 55.3031 28.697H60.3031V26.5758H55.4546V26.5Z" fill="white"/>
</svg>
