<?xml version="1.0" encoding="UTF-8" standalone="no"?>
<svg
   xmlns:dc="http://purl.org/dc/elements/1.1/"
   xmlns:cc="http://creativecommons.org/ns#"
   xmlns:rdf="http://www.w3.org/1999/02/22-rdf-syntax-ns#"
   xmlns:svg="http://www.w3.org/2000/svg"
   xmlns="http://www.w3.org/2000/svg"
   xmlns:sodipodi="http://sodipodi.sourceforge.net/DTD/sodipodi-0.dtd"
   xmlns:inkscape="http://www.inkscape.org/namespaces/inkscape"
   width="120px"
   height="120px"
   viewBox="0 0 120 120"
   version="1.1"
   id="svg25"
   sodipodi:docname="piomic_logo_oval.svg"
   inkscape:version="0.92.3 (2405546, 2018-03-11)">
  <metadata
     id="metadata31">
    <rdf:RDF>
      <cc:Work
         rdf:about="">
        <dc:format>image/svg+xml</dc:format>
        <dc:type
           rdf:resource="http://purl.org/dc/dcmitype/StillImage" />
      </cc:Work>
    </rdf:RDF>
  </metadata>
  <defs
     id="defs29" />
  <sodipodi:namedview
     pagecolor="#ffffff"
     bordercolor="#666666"
     borderopacity="1"
     objecttolerance="10"
     gridtolerance="10"
     guidetolerance="10"
     inkscape:pageopacity="0"
     inkscape:pageshadow="2"
     inkscape:window-width="1920"
     inkscape:window-height="1025"
     id="namedview27"
     showgrid="false"
     inkscape:zoom="2.7812867"
     inkscape:cx="53.074119"
     inkscape:cy="45.713553"
     inkscape:window-x="1920"
     inkscape:window-y="27"
     inkscape:window-maximized="1"
     inkscape:current-layer="svg25" />
  <!-- Generator: Sketch 63.1 (92452) - https://sketch.com -->
  <title
     id="title2">piomic_logo_oval</title>
  <desc
     id="desc4">Created with Sketch.</desc>
  <g
     id="g81">
    <g
       id="piomic_logo_oval"
       style="fill:none;fill-rule:evenodd;stroke:none;stroke-width:1">
      <circle
         style="fill:#1f7387"
         r="60"
         cy="60"
         cx="60"
         id="Oval" />
      <g
         style="fill:#ffffff;fill-rule:nonzero"
         transform="translate(60.212389,53.195715)"
         id="Group" />
    </g>
    <g
       style="fill:#ffffff"
       id="g12"
       transform="matrix(0.08879049,0,0,0.08879049,18.039213,-2.558272)">
      <g
         style="fill:#ffffff"
         id="g4">
        <path
           style="fill:#ffffff"
           id="path2"
           d="m 434.206,848.621 c -56.041,0 -102.335,-38.375 -102.335,-99.287 0,-60.305 46.904,-97.462 102.335,-97.462 56.041,0 102.944,37.157 102.944,97.462 -10e-4,60.912 -46.904,99.287 -102.944,99.287 z m 0,-146.191 c -28.629,0 -43.249,23.146 -43.249,46.902 0,23.758 15.229,48.123 43.858,48.123 28.629,0 43.857,-24.365 43.857,-48.123 10e-4,-23.756 -15.837,-46.902 -44.466,-46.902 z"
           inkscape:connector-curvature="0" />
      </g>
      <path
         style="fill:#ffffff"
         id="path6"
         d="m 240.5,843.139 1.827,-187.004 h -1.218 L 172.276,843.139 H 127.2 L 60.195,655.525 h -0.609 l 1.219,187.613 H 0.5 V 578.773 h 90.761 l 60.305,169.949 h 1.218 L 210.652,578.773 H 303.24 V 843.138 H 240.5 Z"
         inkscape:connector-curvature="0" />
      <path
         style="fill:#ffffff"
         id="path8"
         d="m 764.967,843.139 h -76.142 l -60.914,-89.543 h -1.219 v 89.543 H 565.17 V 560.5 h 61.522 v 171.777 h 1.219 l 59.695,-75.533 h 74.313 l -71.878,84.061 z"
         inkscape:connector-curvature="0" />
      <path
         style="fill:#ffffff"
         id="path10"
         d="m 775.932,682.328 c 21.93,-20.711 52.994,-31.676 82.844,-31.676 62.739,0 85.888,30.457 85.888,98.07 v 94.416 h -56.04 v -20.102 h -1.219 c -9.138,15.229 -30.457,24.367 -52.995,24.367 -29.238,0 -67.614,-14.619 -67.614,-58.479 0,-53.605 65.178,-62.74 119.392,-62.74 v -3.047 c 0,-18.274 -14.619,-26.802 -33.502,-26.802 -17.665,0 -34.722,8.527 -45.687,18.884 z m 112.69,79.797 h -7.919 c -26.803,0 -57.259,3.654 -57.259,25.584 0,14.01 14.01,18.883 26.802,18.883 24.975,0 38.376,-15.229 38.376,-38.375 z"
         inkscape:connector-curvature="0" />
    </g>
  </g>
</svg>
