<?xml version="1.0" encoding="utf-8"?>
<!-- Generator: Adobe Illustrator 16.0.0, SVG Export Plug-In . SVG Version: 6.00 Build 0)  -->
<!DOCTYPE svg PUBLIC "-//W3C//DTD SVG 1.1//EN" "http://www.w3.org/Graphics/SVG/1.1/DTD/svg11.dtd">
<svg version="1.1" xmlns="http://www.w3.org/2000/svg" xmlns:xlink="http://www.w3.org/1999/xlink" x="0px" y="0px"
	 width="945px" height="289px" viewBox="0.5 560.5 945 289" enable-background="new 0.5 560.5 945 289" xml:space="preserve">
<g>
	<g>
		<path fill="#1F7387" d="M434.206,848.621c-56.041,0-102.335-38.375-102.335-99.287c0-60.305,46.904-97.462,102.335-97.462
			c56.041,0,102.944,37.157,102.944,97.462C537.149,810.246,490.246,848.621,434.206,848.621z M434.206,702.43
			c-28.629,0-43.249,23.146-43.249,46.902c0,23.758,15.229,48.123,43.858,48.123s43.857-24.365,43.857-48.123
			C478.673,725.576,462.835,702.43,434.206,702.43z"/>
	</g>
	<path fill="#1F7387" d="M240.5,843.139l1.827-187.004h-1.218l-68.833,187.004H127.2L60.195,655.525h-0.609l1.219,187.613H0.5
		V578.773h90.761l60.305,169.949h1.218l57.868-169.949h92.588v264.365H240.5L240.5,843.139z"/>
	<path fill="#1F7387" d="M764.967,843.139h-76.142l-60.914-89.543h-1.219v89.543H565.17V560.5h61.522v171.777h1.219l59.695-75.533
		h74.313l-71.878,84.061L764.967,843.139z"/>
	<path fill="#1F7387" d="M775.932,682.328c21.93-20.711,52.994-31.676,82.844-31.676c62.739,0,85.888,30.457,85.888,98.07v94.416
		h-56.04v-20.102h-1.219c-9.138,15.229-30.457,24.367-52.995,24.367c-29.238,0-67.614-14.619-67.614-58.479
		c0-53.605,65.178-62.74,119.392-62.74v-3.047c0-18.274-14.619-26.802-33.502-26.802c-17.665,0-34.722,8.527-45.687,18.884
		L775.932,682.328z M888.622,762.125h-7.919c-26.803,0-57.259,3.654-57.259,25.584c0,14.01,14.01,18.883,26.802,18.883
		c24.975,0,38.376-15.229,38.376-38.375V762.125z"/>
</g>
</svg>
