<?xml version="1.0" encoding="utf-8"?>
<!-- Generator: Adobe Illustrator 23.0.2, SVG Export Plug-In . SVG Version: 6.00 Build 0)  -->
<svg version="1.1" id="Capa_1" xmlns="http://www.w3.org/2000/svg" xmlns:xlink="http://www.w3.org/1999/xlink" x="0px" y="0px"
	 viewBox="0 0 100 100" style="enable-background:new 0 0 100 100;" xml:space="preserve">
<style type="text/css">
	.st0{opacity:0.1;fill:#FFFFFF;}
</style>
<path class="st0" d="M100,50l-5.3,2.68c-6.8,3.44-13.98,6.1-21.36,7.89c-7.61,1.85-15.46,2.78-23.35,2.78
	c-7.88,0-15.74-0.94-23.35-2.78c-7.37-1.79-14.56-4.44-21.36-7.89L0,50l5.3-2.68c6.8-3.44,13.98-6.1,21.36-7.89
	c7.61-1.85,15.46-2.78,23.35-2.78s15.74,0.94,23.35,2.78c7.37,1.79,14.56,4.44,21.36,7.89L100,50z M13.79,50
	C25.25,54.87,37.4,57.33,50,57.33c12.6,0,24.75-2.46,36.21-7.33C74.75,45.13,62.6,42.67,50,42.67C37.4,42.67,25.25,45.13,13.79,50z"
	/>
</svg>
