<svg width="18" height="15" viewBox="0 0 18 15" fill="none" xmlns="http://www.w3.org/2000/svg">
<path d="M0.864 14.76C0.288 12.216 0 10.008 0 8.136C0 5.448 0.624 3.432 1.872 2.088C3.12 0.696 4.944 0 7.344 0V2.88C6.096 2.88 5.184 3.216 4.608 3.888C4.08 4.56 3.816 5.568 3.816 6.912V8.568H7.416V14.76H0.864ZM10.584 14.76C10.008 12.216 9.72 10.008 9.72 8.136C9.72 5.448 10.344 3.432 11.592 2.088C12.84 0.696 14.664 0 17.064 0V2.88C15.816 2.88 14.904 3.216 14.328 3.888C13.8 4.56 13.536 5.568 13.536 6.912V8.568H17.136V14.76H10.584Z" fill="#37B4C8"/>
</svg>
