<?xml version="1.0" encoding="utf-8"?>
<!-- Generator: Adobe Illustrator 23.0.2, SVG Export Plug-In . SVG Version: 6.00 Build 0)  -->
<svg version="1.1" id="Layer_1" xmlns="http://www.w3.org/2000/svg" xmlns:xlink="http://www.w3.org/1999/xlink" x="0px" y="0px"
	 viewBox="0 0 310 310" style="enable-background:new 0 0 310 310;" xml:space="preserve">
	<style type="text/css">
		.st0{fill:#C4C4C4;}
	</style>
	<animateTransform
		xlink:href="#logo"
		attributeName="transform"
		type="rotate"
		from="0 155 155"
		to="359 155 155"
		values="0 155 155; 359 155 155"
		keyTimes="0; 1"
		dur="10s"
		repeatCount="indefinite"/>

	<animateTransform
		xlink:href="#int"
		attributeName="transform"
		type="scale"
		additive="sum"
		from="1 1"
		to="1 -1"
		begin="2.5s"
		dur="5s"
		repeatCount="indefinite">
	</animateTransform>

	<animateTransform
		xlink:href="#int-z"
		attributeName="transform"
		type="scale"
		additive="sum"
		from="1 1"
		to="1 -1"
		begin="0s"
		dur="5s"
		repeatCount="indefinite">
	</animateTransform>

	<g id="logo">
		<g id="ext">
			<path class="st0" d="M281.8,85.1c-14.6,0.6-29.2,5-42.6,12.9c-13.5,7.9-24.7,18.5-32.5,30.9c14.6-0.6,29.2-5,42.6-12.9
				C262.7,108.1,273.9,97.5,281.8,85.1z"/>
			<path class="st0" d="M103.4,181.7c-14.6,0.6-29.2,5-42.6,12.9c-13.5,7.9-24.7,18.5-32.5,30.9c14.6-0.6,29.2-5,42.6-12.9
				C84.3,204.7,95.5,194,103.4,181.7z"/>
			<path class="st0" d="M281.8,225.4c-7.9-12.3-19.1-23-32.5-30.9c-13.5-7.9-28.1-11.8-42.6-12.9c7.9,12.3,19.1,23,32.5,30.9
				C252.6,220.4,267.2,224.9,281.8,225.4z"/>
			<path class="st0" d="M103.4,128.9c-7.9-12.3-19.1-23-32.5-30.9c-13.5-7.9-28.1-11.8-42.6-12.9c7.9,12.3,19.1,23,32.5,30.9
				S88.8,127.8,103.4,128.9z"/>
			<path class="st0" d="M155,295.5c6.7-12.9,10.7-28.1,10.7-43.8s-3.9-30.3-10.7-43.8c-6.7,12.9-10.7,28.1-10.7,43.8
				S148.3,282.6,155,295.5z"/>
			<path class="st0" d="M155,102c6.7-12.9,10.7-28.1,10.7-43.8s-3.9-30.3-10.7-43.8c-6.7,12.9-10.7,28.1-10.7,43.8
				C144.3,74.5,148.3,89.1,155,102z"/>
		</g>
		
		<g id="int" transform="translate(0 155)">
			<g transform="translate(0 -155)">
				<path d="M105.1,68.9c0.6,14.6,5,29.2,12.9,42.6c7.9,13.5,18.5,24.7,30.9,32.5c-0.6-14.6-5-29.2-12.9-42.6
					C128.1,88,117.4,77.3,105.1,68.9z"/>
				<path d="M161.2,165.9c0.6,14.6,5,29.2,12.9,42.6c7.9,13.5,18.5,24.7,30.9,32.5c-0.6-14.6-5-29.2-12.9-42.6
					C184.2,185,173.5,173.8,161.2,165.9z"/>
				<path d="M204.9,68.9c-12.3,7.9-23,19.1-30.9,32.5c-7.9,13.5-11.8,28.1-12.9,42.6c12.3-7.9,23-19.1,30.9-32.5
					C199.9,98.6,203.8,84,204.9,68.9z"/>
				<path d="M148.8,165.9c-12.3,7.9-23,19.1-30.9,32.5c-7.9,13.5-11.8,28.1-12.9,42.6c12.3-7.9,23-19.1,30.9-32.5
					C143.8,195.1,148.3,180.5,148.8,165.9z"/>
				<path d="M254.3,155.3c-12.9-6.7-28.1-10.7-43.8-10.7s-30.3,3.9-43.8,10.7c12.9,6.7,28.1,10.7,43.8,10.7
					C226.8,165.9,241.4,162,254.3,155.3z"/>
				<path d="M142.7,155.3c-12.9-6.7-28.1-10.7-43.8-10.7s-30.3,3.9-43.8,10.7c12.9,6.7,28.1,10.7,43.8,10.7S129.8,162,142.7,155.3z"/>
			</g>
		</g>
		
		<g id="int-z" transform="translate(0 155)">
			<g transform="translate(0 -155)">
				<path d="M105.1,68.9c0.6,14.6,5,29.2,12.9,42.6c7.9,13.5,18.5,24.7,30.9,32.5c-0.6-14.6-5-29.2-12.9-42.6
					C128.1,88,117.4,77.3,105.1,68.9z"/>
				<path d="M161.2,165.9c0.6,14.6,5,29.2,12.9,42.6c7.9,13.5,18.5,24.7,30.9,32.5c-0.6-14.6-5-29.2-12.9-42.6
					C184.2,185,173.5,173.8,161.2,165.9z"/>
				<path d="M204.9,68.9c-12.3,7.9-23,19.1-30.9,32.5c-7.9,13.5-11.8,28.1-12.9,42.6c12.3-7.9,23-19.1,30.9-32.5
					C199.9,98.6,203.8,84,204.9,68.9z"/>
				<path d="M148.8,165.9c-12.3,7.9-23,19.1-30.9,32.5c-7.9,13.5-11.8,28.1-12.9,42.6c12.3-7.9,23-19.1,30.9-32.5
					C143.8,195.1,148.3,180.5,148.8,165.9z"/>
				<path d="M254.3,155.3c-12.9-6.7-28.1-10.7-43.8-10.7s-30.3,3.9-43.8,10.7c12.9,6.7,28.1,10.7,43.8,10.7
					C226.8,165.9,241.4,162,254.3,155.3z"/>
				<path d="M142.7,155.3c-12.9-6.7-28.1-10.7-43.8-10.7s-30.3,3.9-43.8,10.7c12.9,6.7,28.1,10.7,43.8,10.7S129.8,162,142.7,155.3z"/>
			</g>
		</g>
	</g>
</svg>
