<?xml version="1.0" encoding="utf-8"?>
<!-- Generator: Adobe Illustrator 23.0.2, SVG Export Plug-In . SVG Version: 6.00 Build 0)  -->
<svg version="1.1" id="Layer_1" xmlns="http://www.w3.org/2000/svg" xmlns:xlink="http://www.w3.org/1999/xlink" x="0px" y="0px"
	 viewBox="0 0 50 50" style="enable-background:new 0 0 50 50;" xml:space="preserve">
<path d="M33.9,40.4c-0.1-2.6-0.9-5.2-2.3-7.6c-1.4-2.4-3.3-4.4-5.5-5.8c0.1,2.6,0.9,5.2,2.3,7.6C29.8,37,31.7,38.9,33.9,40.4z"/>
<path d="M23.9,23.1c-0.1-2.6-0.9-5.2-2.3-7.6s-3.3-4.4-5.5-5.8c0.1,2.6,0.9,5.2,2.3,7.6C19.8,19.7,21.7,21.7,23.9,23.1z"/>
<path d="M16.1,40.4c2.2-1.4,4.1-3.4,5.5-5.8c1.4-2.4,2.1-5,2.3-7.6c-2.2,1.4-4.1,3.4-5.5,5.8C17,35.1,16.3,37.7,16.1,40.4z"/>
<path d="M26.1,23.1c2.2-1.4,4.1-3.4,5.5-5.8c1.4-2.4,2.1-5,2.3-7.6c-2.2,1.4-4.1,3.4-5.5,5.8C27,17.9,26.2,20.5,26.1,23.1z"/>
<path d="M7.3,25c2.3,1.2,5,1.9,7.8,1.9s5.4-0.7,7.8-1.9c-2.3-1.2-5-1.9-7.8-1.9C12.2,23.1,9.6,23.8,7.3,25z"/>
<path d="M27.2,25c2.3,1.2,5,1.9,7.8,1.9s5.4-0.7,7.8-1.9c-2.3-1.2-5-1.9-7.8-1.9S29.5,23.8,27.2,25z"/>
</svg>
