<?xml version="1.0" encoding="utf-8"?>
<!-- Generator: Adobe Illustrator 23.0.2, SVG Export Plug-In . SVG Version: 6.00 Build 0)  -->
<svg version="1.1" id="Layer_1" xmlns="http://www.w3.org/2000/svg" xmlns:xlink="http://www.w3.org/1999/xlink" x="0px" y="0px"
	 viewBox="0 0 220 50" style="enable-background:new 0 0 220 50;" xml:space="preserve">
<g>
	<path d="M1.6,20.5c0-0.6,0.1-1.2,0.4-1.7s0.6-1,1.1-1.4c0.5-0.4,1-0.7,1.7-1C5.5,16.2,6.2,16,7.1,16c0.7,0,1.4,0.1,2,0.4
		c0.6,0.3,1.2,0.6,1.7,1.1c0.5,0.4,0.9,1,1.1,1.5c0.3,0.6,0.4,1.2,0.5,1.9H11c-0.1-1-0.5-1.9-1.2-2.6c-0.7-0.7-1.6-1-2.7-1
		c-0.6,0-1.2,0.1-1.7,0.3c-0.5,0.2-1,0.4-1.3,0.7c-0.3,0.3-0.6,0.7-0.8,1.1C3.1,19.7,3,20.1,3,20.5c0,0.8,0.3,1.5,0.7,1.9
		c0.5,0.4,1.1,0.8,1.8,1.1C6.2,23.7,7,24,7.8,24.2c0.8,0.2,1.6,0.5,2.3,0.9s1.3,0.9,1.8,1.5s0.7,1.4,0.7,2.5c0,0.7-0.1,1.4-0.4,1.9
		c-0.3,0.6-0.6,1.1-1.1,1.5s-1.1,0.8-1.8,1S7.8,33.9,7,33.9c-0.9,0-1.6-0.1-2.3-0.4c-0.7-0.2-1.3-0.6-1.8-1c-0.5-0.4-0.9-1-1.1-1.6
		c-0.3-0.6-0.4-1.3-0.5-2h1.4c0.1,1.1,0.6,2,1.3,2.7c0.7,0.7,1.7,1,3,1s2.4-0.3,3.1-1c0.7-0.7,1.1-1.5,1.1-2.6c0-0.8-0.2-1.5-0.7-2
		s-1.1-0.9-1.8-1.2C8,25.5,7.2,25.3,6.4,25c-0.8-0.1-1.6-0.3-2.3-0.7c-0.7-0.3-1.3-0.8-1.8-1.4C1.9,22.3,1.6,21.6,1.6,20.5z"/>
	<path d="M20.1,21.4c0.7,0,1.3,0.1,1.8,0.3s1,0.5,1.4,0.9c0.4,0.4,0.7,0.8,1,1.4c0.2,0.5,0.3,1.1,0.3,1.7v8.1l0,0
		c-0.9-0.6-1.3-1.8-1.3-1.8c-0.3,0.4-0.6,0.7-1,1s-0.8,0.5-1.2,0.7C20.6,33.9,20,34,19.3,34c-1.4,0-2.5-0.3-3.2-1
		c-0.7-0.7-1.1-1.5-1.1-2.5c0-0.6,0.1-1.1,0.4-1.6c0.2-0.5,0.6-0.9,1.2-1.3c0.5-0.4,1.2-0.6,2.1-0.9c0.9-0.2,1.9-0.3,3.2-0.3h1.5
		v-0.7c0-0.9-0.3-1.6-0.9-2.2c-0.6-0.6-1.4-0.8-2.3-0.8c-1,0-1.7,0.2-2.3,0.6c-0.5,0.4-0.9,1-1.1,1.6h-1.2c0-0.5,0.2-0.9,0.4-1.3
		c0.2-0.4,0.6-0.8,1-1.1c0.4-0.3,0.8-0.6,1.4-0.8C18.8,21.5,19.4,21.4,20.1,21.4z M19.4,32.6c1.2,0,2.1-0.4,2.8-1.1
		c0.7-0.7,1.1-1.7,1.1-2.8v-1.1h-1.5c-1.1,0-2,0.1-2.7,0.2c-0.7,0.1-1.3,0.4-1.7,0.6c-0.4,0.3-0.7,0.5-0.9,0.9
		c-0.2,0.3-0.3,0.7-0.3,1.1c0,0.6,0.3,1.1,0.8,1.5C17.6,32.4,18.4,32.6,19.4,32.6z"/>
	<path d="M33.6,21.4c0.7,0,1.3,0.1,1.9,0.4c0.6,0.2,1.1,0.6,1.5,1.1c0.4,0.5,0.8,1,1,1.6s0.4,1.3,0.4,2.1v7.2h-1.2v-7.2
		c0-0.6-0.1-1.1-0.3-1.5c-0.2-0.5-0.5-0.9-0.8-1.2c-0.3-0.3-0.7-0.6-1.2-0.8c-0.5-0.2-0.9-0.3-1.5-0.3s-1.1,0.1-1.5,0.3
		c-0.5,0.2-0.9,0.5-1.2,0.8c-0.3,0.4-0.6,0.8-0.8,1.2c-0.2,0.5-0.3,1-0.3,1.5v7.2h-1.3V21.5l0,0c0.9,0.6,1.3,1.8,1.3,1.8
		c0.3-0.4,0.6-0.7,1-1c0.3-0.2,0.7-0.5,1.2-0.7C32.3,21.5,32.9,21.4,33.6,21.4z"/>
	<path d="M43.5,22.8h-2.4v-1.3h1.1c0.9,0,1.4-0.5,1.4-1.4v-2.2h1.1v3.6h3.1v1.2h-3.1v7.5c0,0.8,0.2,1.4,0.6,1.8
		c0.4,0.4,1,0.6,1.6,0.6c0.2,0,0.4,0,0.6-0.1c0.1,0,0.1,0,0.2-0.1v1.1c-0.1,0.1-0.2,0.1-0.3,0.1c-0.2,0.1-0.5,0.1-0.8,0.1
		c-0.9,0-1.7-0.3-2.3-1c-0.6-0.6-0.9-1.5-0.9-2.6v-7.3H43.5z"/>
	<path d="M61.4,27.6c0,0.9-0.1,1.7-0.4,2.5c-0.3,0.8-0.7,1.4-1.2,2c-0.5,0.6-1.1,1-1.8,1.3s-1.4,0.5-2.2,0.5s-1.5-0.2-2.2-0.5
		s-1.3-0.7-1.8-1.3c-0.5-0.6-0.9-1.2-1.2-2c-0.3-0.8-0.6-1.6-0.6-2.5s0.1-1.7,0.4-2.5c0.3-0.8,0.7-1.4,1.2-2c0.5-0.6,1.1-1,1.8-1.3
		c0.7-0.3,1.4-0.5,2.2-0.5s1.5,0.2,2.2,0.5c0.7,0.3,1.3,0.7,1.8,1.3s0.9,1.2,1.2,2C61.3,25.9,61.4,26.7,61.4,27.6z M51.2,27.6
		c0,0.7,0.1,1.4,0.4,2s0.6,1.1,1,1.6c0.4,0.4,0.9,0.8,1.4,1s1.1,0.4,1.7,0.4c0.6,0,1.2-0.1,1.7-0.4c0.5-0.2,1-0.6,1.4-1s0.7-1,1-1.6
		s0.4-1.3,0.4-2c0-0.7-0.1-1.4-0.4-2s-0.6-1.1-1-1.6c-0.4-0.4-0.9-0.8-1.4-1c-0.5-0.2-1.1-0.4-1.7-0.4c-0.6,0-1.2,0.1-1.7,0.4
		c-0.5,0.2-1,0.6-1.4,1s-0.7,1-1,1.6S51.2,26.9,51.2,27.6z"/>
	<path d="M70.3,21.4v1.2h-0.7c-1.2,0-2.1,0.4-2.8,1.1c-0.7,0.7-1.1,1.7-1.1,3v7.1h-1.3V21.5l0,0c0.9,0.6,1.3,1.8,1.3,1.8
		c0.2-0.4,0.6-0.7,1-1c0.3-0.2,0.7-0.5,1.2-0.7c0.5-0.2,1.1-0.3,1.8-0.3h0.6V21.4z"/>
	<path d="M72.7,17.6c0-0.3,0.1-0.5,0.3-0.7c0.2-0.2,0.4-0.3,0.7-0.3c0.3,0,0.5,0.1,0.7,0.3c0.2,0.2,0.3,0.4,0.3,0.7
		s-0.1,0.5-0.3,0.7c-0.2,0.2-0.4,0.3-0.7,0.3c-0.3,0-0.5-0.1-0.7-0.3C72.8,18.1,72.7,17.9,72.7,17.6z M74.2,33.8H73V21.5h1.2V33.8z"
		/>
	<path d="M88.9,27.6c0,0.9-0.1,1.7-0.4,2.5c-0.3,0.8-0.7,1.4-1.2,2c-0.5,0.6-1.1,1-1.8,1.3c-0.7,0.3-1.4,0.5-2.2,0.5
		c-0.8,0-1.5-0.2-2.2-0.5s-1.3-0.7-1.8-1.3c-0.5-0.6-0.9-1.2-1.2-2c-0.3-0.8-0.4-1.6-0.4-2.5s0.1-1.7,0.4-2.5c0.3-0.8,0.7-1.4,1.2-2
		c0.5-0.6,1.1-1,1.8-1.3c0.7-0.3,1.4-0.5,2.2-0.5c0.8,0,1.5,0.2,2.2,0.5c0.7,0.3,1.3,0.7,1.8,1.3s0.9,1.2,1.2,2
		C88.8,25.9,88.9,26.7,88.9,27.6z M78.8,27.6c0,0.7,0.1,1.4,0.4,2c0.2,0.6,0.6,1.1,1,1.6c0.4,0.4,0.9,0.8,1.4,1s1.1,0.4,1.7,0.4
		s1.2-0.1,1.7-0.4c0.5-0.2,1-0.6,1.4-1s0.7-1,1-1.6c0.2-0.6,0.4-1.3,0.4-2c0-0.7-0.1-1.4-0.4-2c-0.2-0.6-0.6-1.1-1-1.6
		c-0.4-0.4-0.9-0.8-1.4-1c-0.5-0.2-1.1-0.4-1.7-0.4s-1.2,0.1-1.7,0.4c-0.5,0.2-1,0.6-1.4,1s-0.7,1-1,1.6S78.8,26.9,78.8,27.6z"/>
	<g>
		<path d="M130.7,33.9c-0.7,0-1.4-0.1-1.9-0.4s-1.1-0.6-1.5-1.1c-0.4-0.5-0.8-1-1-1.6c-0.3-0.6-0.4-1.3-0.4-2.1v-7.2h1.3v7.2
			c0,0.6,0.1,1.1,0.3,1.5c0.2,0.5,0.5,0.9,0.8,1.2c0.3,0.4,0.7,0.6,1.2,0.8s0.9,0.3,1.5,0.3s1.1-0.1,1.5-0.3
			c0.5-0.2,0.9-0.5,1.2-0.8c0.4-0.4,0.6-0.8,0.8-1.2c0.2-0.5,0.3-1,0.3-1.5v-7.2h1.2v12.2c-0.9-0.6-1.3-1.8-1.3-1.8
			c-0.3,0.4-0.7,0.7-1,1c-0.3,0.2-0.7,0.5-1.2,0.7C132,33.8,131.4,33.9,130.7,33.9z"/>
		<path d="M145.2,21.4c0.7,0,1.3,0.1,1.9,0.4c0.6,0.2,1.1,0.6,1.5,1.1c0.4,0.5,0.8,1,1,1.6s0.4,1.3,0.4,2.1v7.2h-1.2v-7.2
			c0-0.6-0.1-1.1-0.3-1.5c-0.2-0.5-0.5-0.9-0.8-1.2c-0.3-0.3-0.7-0.6-1.2-0.8c-0.5-0.2-0.9-0.3-1.5-0.3s-1.1,0.1-1.5,0.3
			c-0.5,0.2-0.9,0.5-1.2,0.8c-0.3,0.4-0.6,0.8-0.8,1.2c-0.2,0.5-0.3,1-0.3,1.5v7.2h-1.3V21.5l0,0c0.9,0.6,1.3,1.8,1.3,1.8
			c0.3-0.4,0.6-0.7,1-1c0.3-0.2,0.7-0.5,1.2-0.7C143.9,21.5,144.5,21.4,145.2,21.4z"/>
		<path d="M213.8,21.4c0.7,0,1.3,0.1,1.9,0.4c0.6,0.2,1.1,0.6,1.5,1.1c0.4,0.5,0.8,1,1,1.6s0.4,1.3,0.4,2.1v7.2h-1.2v-7.2
			c0-0.6-0.1-1.1-0.3-1.5c-0.2-0.5-0.5-0.9-0.8-1.2c-0.3-0.3-0.7-0.6-1.2-0.8c-0.5-0.2-0.9-0.3-1.5-0.3s-1.1,0.1-1.5,0.3
			c-0.5,0.2-0.9,0.5-1.2,0.8c-0.3,0.4-0.6,0.8-0.8,1.2c-0.2,0.5-0.3,1-0.3,1.5v7.2h-1.3V21.5l0,0c0.9,0.6,1.3,1.8,1.3,1.8
			c0.3-0.4,0.6-0.7,1-1c0.3-0.2,0.7-0.5,1.2-0.7C212.5,21.5,213.1,21.4,213.8,21.4z"/>
		<path d="M172.5,21.4c0.7,0,1.3,0.1,1.8,0.3s1,0.5,1.4,0.9s0.7,0.8,0.9,1.4c0.2,0.5,0.3,1.1,0.3,1.7v8.1l0,0
			c-0.9-0.6-1.3-1.8-1.3-1.8c-0.3,0.4-0.6,0.7-1,1s-0.8,0.5-1.2,0.7c-0.5,0.2-1.1,0.3-1.8,0.3c-1.4,0-2.5-0.3-3.2-1
			s-1.1-1.5-1.1-2.5c0-0.6,0.1-1.1,0.4-1.6c0.2-0.5,0.6-0.9,1.2-1.3c0.5-0.4,1.2-0.6,2.1-0.9c0.9-0.2,1.9-0.3,3.2-0.3h1.5v-0.7
			c0-0.9-0.3-1.6-0.9-2.2c-0.6-0.6-1.4-0.8-2.3-0.8c-1,0-1.7,0.2-2.3,0.6c-0.5,0.4-0.9,1-1.1,1.6h-1.2c0.1-0.4,0.2-0.9,0.5-1.3
			c0.2-0.4,0.6-0.8,1-1.1c0.4-0.3,0.8-0.6,1.4-0.8C171.2,21.5,171.8,21.4,172.5,21.4z M171.8,32.6c1.2,0,2.1-0.4,2.8-1.1
			c0.7-0.7,1.1-1.7,1.1-2.8v-1.1h-1.5c-1.1,0-2,0.1-2.7,0.2c-0.7,0.1-1.3,0.4-1.7,0.6c-0.4,0.3-0.7,0.5-0.9,0.9
			c-0.2,0.3-0.3,0.7-0.3,1.1c0,0.6,0.3,1.1,0.8,1.5C170,32.4,170.8,32.6,171.8,32.6z"/>
		<path d="M99.7,33.8V16.2H110v1.2h-8.9v6.8h7.4v1.2h-7.4v8.2h-1.4V33.8z"/>
		<path d="M122.8,27.6c0,0.9-0.1,1.7-0.4,2.5c-0.3,0.8-0.7,1.4-1.2,2c-0.5,0.6-1.1,1-1.8,1.3c-0.7,0.3-1.4,0.5-2.2,0.5
			c-0.8,0-1.5-0.2-2.2-0.5s-1.3-0.7-1.8-1.3c-0.5-0.6-0.9-1.2-1.2-2c-0.3-0.8-0.4-1.6-0.4-2.5s0.1-1.7,0.4-2.5
			c0.3-0.8,0.7-1.4,1.2-2c0.5-0.6,1.1-1,1.8-1.3c0.7-0.3,1.4-0.5,2.2-0.5c0.8,0,1.5,0.2,2.2,0.5c0.7,0.3,1.3,0.7,1.8,1.3
			s0.9,1.2,1.2,2C122.6,25.9,122.8,26.7,122.8,27.6z M112.6,27.6c0,0.7,0.1,1.4,0.4,2c0.2,0.6,0.6,1.1,1,1.6c0.4,0.4,0.9,0.8,1.4,1
			s1.1,0.4,1.7,0.4s1.2-0.1,1.7-0.4c0.5-0.2,1-0.6,1.4-1s0.7-1,1-1.6c0.2-0.6,0.4-1.3,0.4-2c0-0.7-0.1-1.4-0.4-2
			c-0.2-0.6-0.6-1.1-1-1.6c-0.4-0.4-0.9-0.8-1.4-1c-0.5-0.2-1.1-0.4-1.7-0.4s-1.2,0.1-1.7,0.4c-0.5,0.2-1,0.6-1.4,1s-0.7,1-1,1.6
			S112.6,26.9,112.6,27.6z"/>
		<path d="M152.9,27.6c0-0.9,0.1-1.7,0.4-2.5c0.3-0.8,0.7-1.4,1.2-2c0.5-0.6,1.1-1,1.8-1.3c0.7-0.3,1.4-0.5,2.2-0.5
			c0.7,0,1.3,0.1,1.8,0.3c0.5,0.2,0.9,0.5,1.3,0.8c0.4,0.3,0.8,0.7,1.1,1.1h0.1v-7.3h1.2v17.5c-1.1-0.8-1.3-2.1-1.3-2.1
			c-0.3,0.4-0.7,0.8-1.1,1.1c-0.4,0.3-0.8,0.5-1.3,0.8c-0.5,0.2-1.1,0.3-1.8,0.3c-0.8,0-1.5-0.2-2.2-0.5s-1.3-0.7-1.8-1.3
			c-0.5-0.6-0.9-1.2-1.2-2C153.1,29.4,152.9,28.5,152.9,27.6z M158.6,22.6c-0.6,0-1.2,0.1-1.7,0.4c-0.5,0.2-1,0.6-1.4,1
			s-0.7,1-1,1.6c-0.2,0.6-0.4,1.3-0.4,2c0,0.7,0.1,1.4,0.4,2c0.2,0.6,0.6,1.1,1,1.6c0.4,0.4,0.9,0.8,1.4,1s1.1,0.4,1.7,0.4
			c0.6,0,1.2-0.1,1.7-0.4c0.5-0.2,1-0.6,1.4-1s0.7-1,1-1.6c0.2-0.6,0.4-1.3,0.4-2c0-0.7-0.1-1.4-0.4-2c-0.2-0.6-0.6-1.1-1-1.6
			c-0.4-0.4-0.9-0.8-1.4-1C159.8,22.8,159.2,22.6,158.6,22.6z"/>
		<path d="M181.7,22.8h-2.4v-1.3h1.1c0.9,0,1.4-0.5,1.4-1.4v-2.2h1.1v3.6h3.1v1.2h-3.1v7.5c0,0.8,0.2,1.4,0.6,1.8
			c0.4,0.4,1,0.6,1.6,0.6c0.2,0,0.4,0,0.6-0.1c0.1,0,0.1,0,0.2-0.1v1.1c-0.1,0.1-0.2,0.1-0.3,0.1c-0.2,0.1-0.5,0.1-0.8,0.1
			c-0.9,0-1.7-0.3-2.3-1c-0.6-0.6-0.9-1.5-0.9-2.6L181.7,22.8L181.7,22.8z"/>
		<path d="M189.2,17.6c0-0.3,0.1-0.5,0.3-0.7c0.2-0.2,0.4-0.3,0.7-0.3s0.5,0.1,0.7,0.3c0.2,0.2,0.3,0.4,0.3,0.7s-0.1,0.5-0.3,0.7
			c-0.2,0.2-0.4,0.3-0.7,0.3s-0.5-0.1-0.7-0.3C189.3,18.1,189.2,17.9,189.2,17.6z M190.7,33.8h-1.2V21.5h1.2V33.8z"/>
		<path d="M205.5,27.6c0,0.9-0.1,1.7-0.4,2.5c-0.3,0.8-0.7,1.4-1.2,2c-0.5,0.6-1.1,1-1.8,1.3s-1.4,0.5-2.2,0.5s-1.5-0.2-2.2-0.5
			s-1.3-0.7-1.8-1.3c-0.5-0.6-0.9-1.2-1.2-2c-0.3-0.8-0.4-1.6-0.4-2.5s0.1-1.7,0.4-2.5c0.3-0.8,0.7-1.4,1.2-2c0.5-0.6,1.1-1,1.8-1.3
			c0.7-0.3,1.4-0.5,2.2-0.5s1.5,0.2,2.2,0.5c0.7,0.3,1.3,0.7,1.8,1.3s0.9,1.2,1.2,2C205.3,25.9,205.5,26.7,205.5,27.6z M195.3,27.6
			c0,0.7,0.1,1.4,0.4,2c0.2,0.6,0.6,1.1,1,1.6c0.4,0.4,0.9,0.8,1.4,1s1.1,0.4,1.7,0.4c0.6,0,1.2-0.1,1.7-0.4c0.5-0.2,1-0.6,1.4-1
			s0.7-1,1-1.6c0.2-0.6,0.4-1.3,0.4-2c0-0.7-0.1-1.4-0.4-2c-0.2-0.6-0.6-1.1-1-1.6c-0.4-0.4-0.9-0.8-1.4-1c-0.5-0.2-1.1-0.4-1.7-0.4
			c-0.6,0-1.2,0.1-1.7,0.4c-0.5,0.2-1,0.6-1.4,1s-0.7,1-1,1.6S195.3,26.9,195.3,27.6z"/>
	</g>
</g>
</svg>
