<?xml version="1.0" encoding="utf-8"?>
<!-- Generator: Adobe Illustrator 23.0.2, SVG Export Plug-In . SVG Version: 6.00 Build 0)  -->
<svg version="1.1" id="Layer_1" xmlns="http://www.w3.org/2000/svg" xmlns:xlink="http://www.w3.org/1999/xlink" x="0px" y="0px"
	 viewBox="0 0 50 50" style="enable-background:new 0 0 50 50;" xml:space="preserve">
<style type="text/css">
	.st0{opacity:0.1;}
	.st1{fill:url(#SVGID_1_);}
	.st2{fill:url(#SVGID_2_);}
	.st3{fill:url(#SVGID_3_);}
	.st4{fill:url(#SVGID_4_);}
	.st5{fill:url(#SVGID_5_);}
	.st6{fill:url(#SVGID_6_);}
</style>
<g>
	<g>
		<g class="st0">
			<linearGradient id="SVGID_1_" gradientUnits="userSpaceOnUse" x1="2.3756" y1="33.6203" x2="15.8153" y2="33.6203">
				<stop  offset="0" style="stop-color:#000000"/>
				<stop  offset="1" style="stop-color:#000000"/>
			</linearGradient>
			<path class="st1" d="M2.4,37.5c2.6-0.1,5.2-0.9,7.6-2.3c2.4-1.4,4.4-3.3,5.8-5.5c-2.6,0.1-5.2,0.9-7.6,2.3
				C5.8,33.4,3.8,35.3,2.4,37.5z"/>
		</g>
		<g class="st0">
			<linearGradient id="SVGID_2_" gradientUnits="userSpaceOnUse" x1="34.1847" y1="16.3797" x2="47.6244" y2="16.3797">
				<stop  offset="0" style="stop-color:#000000"/>
				<stop  offset="1" style="stop-color:#000000"/>
			</linearGradient>
			<path class="st2" d="M34.2,20.3c2.6-0.1,5.2-0.9,7.6-2.3c2.4-1.4,4.4-3.3,5.8-5.5c-2.6,0.1-5.2,0.9-7.6,2.3
				C37.6,16.2,35.6,18.1,34.2,20.3z"/>
		</g>
		<g class="st0">
			<linearGradient id="SVGID_3_" gradientUnits="userSpaceOnUse" x1="2.3757" y1="16.3797" x2="15.8153" y2="16.3797">
				<stop  offset="0" style="stop-color:#000000"/>
				<stop  offset="1" style="stop-color:#000000"/>
			</linearGradient>
			<path class="st3" d="M2.4,12.5c1.4,2.2,3.4,4.1,5.8,5.5c2.4,1.4,5,2.1,7.6,2.3c-1.4-2.2-3.4-4.1-5.8-5.5
				C7.6,13.4,5,12.6,2.4,12.5z"/>
		</g>
		<g class="st0">
			<linearGradient id="SVGID_4_" gradientUnits="userSpaceOnUse" x1="34.1847" y1="33.6203" x2="47.6244" y2="33.6203">
				<stop  offset="0" style="stop-color:#000000"/>
				<stop  offset="1" style="stop-color:#000000"/>
			</linearGradient>
			<path class="st4" d="M34.2,29.7c1.4,2.2,3.4,4.1,5.8,5.5c2.4,1.4,5,2.1,7.6,2.3c-1.4-2.2-3.4-4.1-5.8-5.5
				C39.4,30.6,36.8,29.9,34.2,29.7z"/>
		</g>
		<g class="st0">
			<linearGradient id="SVGID_5_" gradientUnits="userSpaceOnUse" x1="23.1483" y1="7.7594" x2="26.8516" y2="7.7594">
				<stop  offset="0" style="stop-color:#000000"/>
				<stop  offset="1" style="stop-color:#000000"/>
			</linearGradient>
			<path class="st5" d="M25,0c-1.2,2.3-1.9,5-1.9,7.8c0,2.8,0.7,5.4,1.9,7.8c1.2-2.3,1.9-5,1.9-7.8C26.9,5,26.2,2.3,25,0z"/>
		</g>
		<g class="st0">
			<linearGradient id="SVGID_6_" gradientUnits="userSpaceOnUse" x1="23.1483" y1="42.2406" x2="26.8516" y2="42.2406">
				<stop  offset="0" style="stop-color:#000000"/>
				<stop  offset="1" style="stop-color:#000000"/>
			</linearGradient>
			<path class="st6" d="M25,34.5c-1.2,2.3-1.9,5-1.9,7.8c0,2.8,0.7,5.4,1.9,7.8c1.2-2.3,1.9-5,1.9-7.8C26.9,39.4,26.2,36.8,25,34.5z
				"/>
		</g>
		<path d="M33.9,40.4c-0.1-2.6-0.9-5.2-2.3-7.6c-1.4-2.4-3.3-4.4-5.5-5.8c0.1,2.6,0.9,5.2,2.3,7.6C29.8,37,31.7,38.9,33.9,40.4z"/>
		<path d="M23.9,23.1c-0.1-2.6-0.9-5.2-2.3-7.6c-1.4-2.4-3.3-4.4-5.5-5.8c0.1,2.6,0.9,5.2,2.3,7.6C19.8,19.7,21.7,21.7,23.9,23.1z"
			/>
		<path d="M16.1,40.4c2.2-1.4,4.1-3.4,5.5-5.8c1.4-2.4,2.1-5,2.3-7.6c-2.2,1.4-4.1,3.4-5.5,5.8C17,35.1,16.3,37.7,16.1,40.4z"/>
		<path d="M26.1,23.1c2.2-1.4,4.1-3.4,5.5-5.8c1.4-2.4,2.1-5,2.3-7.6c-2.2,1.4-4.1,3.4-5.5,5.8C27,17.9,26.2,20.5,26.1,23.1z"/>
		<path d="M7.3,25c2.3,1.2,5,1.9,7.8,1.9c2.8,0,5.4-0.7,7.8-1.9c-2.3-1.2-5-1.9-7.8-1.9C12.2,23.1,9.6,23.8,7.3,25z"/>
		<path d="M27.2,25c2.3,1.2,5,1.9,7.8,1.9c2.8,0,5.4-0.7,7.8-1.9c-2.3-1.2-5-1.9-7.8-1.9C32.2,23.1,29.5,23.8,27.2,25z"/>
	</g>
</g>
</svg>
